<svg xmlns="http://www.w3.org/2000/svg" xmlns:xlink="http://www.w3.org/1999/xlink" version="1.1" x="0px" y="0px" viewBox="0 0 100 100" enable-background="new 0 0 100 100" xml:space="preserve"><path fill="#fff" d="M88.407,65.996v0.295c0,0.15-0.04,0.297-0.119,0.424l-1.821,2.988c-0.149,0.252-0.419,0.393-0.694,0.393  c-0.132,0-0.26-0.031-0.383-0.096l-5.241-2.793l-5.691,2.805c-0.229,0.113-0.498,0.111-0.728-0.004l-5.545-2.803l-5.494,2.801  c-0.271,0.141-0.599,0.115-0.845-0.064l-5.662-4.057h-0.067l-6.34,2.783c-0.205,0.09-0.439,0.092-0.646,0.004l-6.569-2.787H42.48  l-5.665,4.057c-0.283,0.205-0.661,0.205-0.943,0.006l-3.793-2.67l-4.085,2.686c-0.294,0.189-0.679,0.174-0.956-0.045l-2.658-2.117  l-3.586-1.73l-6.68,1.822c-0.377,0.104-0.772-0.076-0.945-0.424l-0.786-1.584c-1.689,0.014-3.056,1.387-3.056,3.08v2.4  c0,3.602,2.919,6.52,6.521,6.52H84.15c3.602,0,6.521-2.918,6.521-6.52v-2.4C90.672,67.545,89.714,66.354,88.407,65.996z"/><path fill="#fff" d="M20.659,64.418c0.19-0.051,0.392-0.035,0.569,0.053l3.943,1.902c0.055,0.025,0.106,0.059,0.154,0.096l2.267,1.805  l4.056-2.662c0.28-0.184,0.643-0.178,0.917,0.014l3.772,2.656l5.594-4.012c0.232-0.164,0.532-0.197,0.794-0.086l6.718,2.85  l6.483-2.848c0.266-0.113,0.569-0.084,0.804,0.084l5.662,4.059l5.421-2.764c0.118-0.059,0.243-0.088,0.37-0.088  s0.253,0.029,0.367,0.086l5.551,2.807l5.702-2.809c0.235-0.117,0.511-0.113,0.743,0.012l4.93,2.627l1.301-2.137v-3.031H12.788  l1.544,3.113L20.659,64.418z"/><path fill="#fff" d="M89.738,49.636h-2.729c-8.611,0.22-17.853,8.741-17.946,8.829c-0.151,0.141-0.351,0.219-0.556,0.219  c-0.028,0-0.058-0.002-0.085-0.006c-0.236-0.023-0.447-0.148-0.583-0.344c-4.667-6.686-39.93-8.521-54.459-8.698h-3.117  c-2.812,0-5.09,2.278-5.09,5.092v1.932c0,2.812,2.278,5.092,5.09,5.092h79.475c2.812,0,5.089-2.279,5.089-5.092v-1.932  C94.827,51.914,92.55,49.636,89.738,49.636z"/><path fill="#fff" d="M68.589,56.703c2.266-1.965,10.112-8.265,17.942-8.686v-1.29H13.169v1.278C19.711,48.089,60.871,48.931,68.589,56.703z"/><path fill="#fff" d="M49.308,22.115c-21.327,0-40.672,11.495-40.672,17.502c0,0.695,0,2.399,0,2.399c0,1.702,1.378,3.082,3.08,3.082h75.184  c1.701,0,3.081-1.38,3.081-3.082c0,0,0-1.284,0-2.399C89.979,33.609,70.634,22.115,49.308,22.115z M55.406,29.14  c0-0.857,1.216-1.553,2.717-1.553c1.5,0,2.718,0.695,2.718,1.553s-1.218,1.552-2.718,1.552  C56.622,30.692,55.406,29.997,55.406,29.14z M61.61,37.989c-1.501,0-2.718-0.695-2.718-1.552s1.217-1.552,2.718-1.552  c1.499,0,2.716,0.695,2.716,1.552S63.109,37.989,61.61,37.989z M74.108,36.437c-1.501,0-2.717-0.695-2.717-1.552  s1.216-1.553,2.717-1.553c1.5,0,2.716,0.695,2.716,1.553S75.608,36.437,74.108,36.437z"/></svg>