<?xml version="1.0" encoding="UTF-8" standalone="no"?>
<!-- Created with Inkscape (http://www.inkscape.org/) -->
<svg xmlns:dc="http://purl.org/dc/elements/1.1/" xmlns:cc="http://creativecommons.org/ns#" xmlns:rdf="http://www.w3.org/1999/02/22-rdf-syntax-ns#" xmlns:svg="http://www.w3.org/2000/svg" xmlns="http://www.w3.org/2000/svg" xmlns:sodipodi="http://sodipodi.sourceforge.net/DTD/sodipodi-0.dtd" xmlns:inkscape="http://www.inkscape.org/namespaces/inkscape" width="552.06604" height="974.76599" id="svg2455" sodipodi:version="0.32" inkscape:version="0.46" sodipodi:docname="Japanese_woman.svg" inkscape:output_extension="org.inkscape.output.svg.inkscape" version="1.0">
  <defs id="defs2457">
    <inkscape:perspective sodipodi:type="inkscape:persp3d" inkscape:vp_x="0 : 526.18109 : 1" inkscape:vp_y="0 : 1000 : 0" inkscape:vp_z="744.09448 : 526.18109 : 1" inkscape:persp3d-origin="372.04724 : 350.78739 : 1" id="perspective2463"/>
  </defs>
  <sodipodi:namedview id="base" pagecolor="#ffffff" bordercolor="#666666" borderopacity="1.0" gridtolerance="10000" guidetolerance="10" objecttolerance="10" inkscape:pageopacity="0.0" inkscape:pageshadow="2" inkscape:zoom="0.35" inkscape:cx="375" inkscape:cy="520" inkscape:document-units="px" inkscape:current-layer="layer1" showgrid="false" inkscape:window-width="1251" inkscape:window-height="952" inkscape:window-x="21" inkscape:window-y="45"/>
  <metadata id="metadata2460">
    <rdf:RDF>
      <cc:Work rdf:about="">
        <dc:format>image/svg+xml</dc:format>
        <dc:type rdf:resource="http://purl.org/dc/dcmitype/StillImage"/>
      </cc:Work>
    </rdf:RDF>
  </metadata>
  <g inkscape:label="Layer 1" inkscape:groupmode="layer" id="layer1" transform="translate(-116.727, -31.83)">
    <path style="fill: rgba(247, 247, 247, 1);" d="M 348.19892,1005.4601 C 335.41932,1002.995 327.56826,999.71803 325.74667,996.08882 C 324.86498,994.33191 324.05024,992.72681 323.93638,992.52204 C 323.82247,992.31728 319.34791,993.23495 313.99284,994.56163 C 308.63782,995.88814 300.35735,997.63401 295.59173,998.44134 C 290.82611,999.2485 283.55992,1001.0698 279.44466,1002.4886 L 271.96239,1005.0682 L 260.87747,999.97984 C 245.36119,992.85741 245.12059,992.77472 218.32385,985.35049 C 201.962,980.81718 193.36179,977.82496 191.40139,975.98301 C 186.90188,971.75594 188.00689,970.86809 193.78133,974.07081 C 196.67478,975.67564 203.2197,977.99756 208.32566,979.2306 C 213.43167,980.4639 230.09288,985.59091 245.35035,990.6241 C 260.60798,995.65746 273.64985,999.58952 274.33239,999.36206 C 276.79519,998.54099 266.608,993.73561 251.54585,988.61346 C 235.58699,983.1863 208.29461,975.80233 207.4215,976.67548 C 206.30893,977.7881 197.60474,974.53564 194.7097,971.92549 C 192.66706,970.08389 189.98078,969.11118 186.80716,969.06405 C 182.72984,969.00353 181.1117,968.08099 176.16166,962.9952 C 168.40413,955.02501 158.00723,940.7112 151.12598,928.52802 C 141.23098,911.00915 130.34325,888.86989 130.34325,886.26863 C 130.34325,884.87815 127.27967,879.05731 123.53527,873.33345 L 116.72726,862.92628 L 116.73725,842.50105 C 116.74275,831.26716 117.56697,815.87156 118.56888,808.28863 C 119.57078,800.70571 120.63168,787.33728 120.92646,778.58099 L 121.4624,762.66063 L 128.68791,756.48528 C 132.66199,753.08886 141.1375,745.18682 147.5226,738.92522 C 160.06077,726.62912 159.55113,727.93374 156.19891,716.71639 C 154.7394,711.8328 154.8904,711.18695 159.81623,701.24374 C 162.64336,695.5367 166.7485,688.69339 168.93888,686.03628 C 173.35767,680.67585 184.24946,675.10655 194.14847,673.14616 C 197.52074,672.4783 204.45754,670.77447 209.56349,669.36 C 214.66951,667.94548 220.0602,666.7751 221.54274,666.75907 C 224.06662,666.7318 224.19374,666.29771 223.53819,659.94556 L 222.83799,653.16129 L 232.67468,642.92561 C 248.33491,626.6302 260.68425,611.3817 265.99376,601.78448 C 266.73506,600.44481 268.96314,598.43569 270.9451,597.31979 C 274.30315,595.42912 274.51206,594.87799 274.01028,589.23407 C 273.08218,578.79517 273.2657,573.518 274.57246,573.07131 C 277.09222,572.21005 279.90473,580.98662 281.18293,593.69875 C 281.90176,600.84718 284.22597,613.10152 286.34799,620.93072 C 297.88839,663.50958 301.31947,676.66073 302.49527,682.82157 C 305.4068,698.07695 305.93009,699.22209 309.59561,698.36005 C 316.52529,696.73039 350.26533,670.52886 379.76314,643.8699 C 389.29438,635.25598 398.41958,627.54559 400.04144,626.73565 C 403.06885,625.22397 422.99061,592.21637 423.97092,587.08796 C 424.25199,585.61783 424.01394,582.60893 423.44193,580.40151 C 422.53851,576.91562 421.74211,576.28252 417.3831,575.58554 C 408.90635,574.23006 414.57026,572.70575 428.65695,572.55146 C 447.40748,572.3461 447.53235,572.28672 449.39531,562.69762 C 451.35492,552.61057 451.48881,522.22496 449.61332,513.24073 C 448.83166,509.49634 448.21681,505.47627 448.24701,504.30723 C 448.32649,501.23442 439.80328,494.95571 429.9094,490.79875 C 417.30813,485.5043 380.38212,478.34933 380.38212,481.20212 C 380.38212,481.82725 386.64858,485.41791 394.30759,489.18131 C 406.61211,495.22739 416.57643,502.26803 414.97749,503.78618 C 414.67203,504.07621 410.52291,502.09091 405.75734,499.37445 C 400.99178,496.65796 392.91503,492.28126 387.80901,489.64854 C 382.70306,487.01584 377.49132,483.65176 376.22752,482.17289 C 374.12684,479.71454 373.09804,479.54101 364.22891,480.14889 C 353.29629,480.89825 351.69391,480.2147 348.94891,473.63062 C 347.53891,470.24838 345.83344,468.78081 341.17231,466.93882 C 319.71612,458.45964 291.25941,442.51273 291.25941,438.96804 C 291.25941,437.22331 298.64476,439.8841 302.97984,443.19067 C 307.69917,446.79022 338.20998,462.98916 338.92475,462.27457 C 339.19171,462.00752 336.20906,458.46546 332.29668,454.40331 C 324.34604,446.14849 313.28359,431.64779 304.88068,418.46641 C 301.81404,413.65604 298.60412,408.64288 297.74721,407.32607 C 293.89896,401.41167 283.7321,379.27853 280.78123,370.39143 C 277.05542,359.17013 271.53794,347.37337 270.01559,347.37337 C 269.44523,347.37337 268.97867,346.81637 268.97867,346.13556 C 268.97867,343.88839 273.2779,344.84574 278.28434,348.20784 C 284.49993,352.38184 285.02802,353.19343 285.05139,358.60635 C 285.06177,361.0401 286.38598,366.89973 287.99401,371.62775 C 291.64361,382.3579 309.231,417.75585 316.48121,428.96355 C 323.19599,439.34356 346.61979,466.2037 348.9571,466.2037 C 350.03524,466.2037 350.67453,464.83902 350.67453,462.53738 C 350.67453,460.52091 353.79548,446.1777 357.61003,430.66362 L 364.54559,402.45619 L 363.16149,383.27003 C 360.62965,348.17269 359.42298,339.61933 356.73799,337.73871 C 355.41193,336.80989 351.72907,333.8014 348.55371,331.05317 C 339.32391,323.06482 333.59142,319.64265 331.80653,321.05534 C 330.95069,321.73264 323.0093,322.62505 314.15902,323.0385 C 298.31628,323.77859 293.85324,324.65604 270.21645,331.67793 C 258.88157,335.04525 242.22031,337.37919 245.4348,335.14937 C 246.44215,334.45068 249.42835,333.51371 252.07083,333.06725 C 254.71342,332.62081 263.35862,330.05221 271.28239,327.3593 C 290.92788,320.68268 300.74369,318.68327 316.01572,318.24742 C 323.16403,318.04341 329.26029,317.82905 329.56264,317.77111 C 329.86515,317.7132 328.20987,316.26206 325.88452,314.54641 C 318.98843,309.45867 318.62106,307.37628 325.11031,310.15788 C 333.91358,313.93137 340.82017,318.75176 349.74779,327.35304 C 354.34406,331.78137 358.42489,335.0843 358.81637,334.69288 C 359.20779,334.30146 358.16556,330.60793 356.50023,326.48509 C 352.87602,317.51252 354.32684,317.7061 363.39966,327.40567 C 368.97736,333.36869 369.18216,333.84687 368.44871,339.19726 C 367.731,344.43343 367.99553,345.12727 372.78243,350.56541 C 375.58636,353.75085 379.34429,359.3489 381.13324,363.00558 C 382.92226,366.66223 385.11116,369.65406 385.99725,369.65406 C 386.8834,369.65406 389.33057,368.67928 391.43531,367.48787 C 395.09174,365.41826 397.6868,360.04569 397.70458,354.50858 C 397.70842,353.32693 398.35625,349.94959 399.14423,347.00329 C 400.57292,341.66191 400.55621,341.61444 393.36533,330.58447 C 385.24122,318.12265 385.87188,318.81009 372.09741,307.40194 C 366.03802,302.38342 358.06643,297.23238 352.29239,294.60439 C 346.97729,292.18531 338.56613,288.2294 333.60056,285.81347 C 325.5902,281.91603 324.19922,281.59092 321.26167,282.92943 C 319.44065,283.75914 310.97039,285.463 302.43883,286.7158 C 280.62514,289.91897 256.2685,296.34894 243.23071,302.34637 C 240.98338,303.38017 237.14907,304.5498 234.71026,304.94558 C 231.92649,305.39734 230.06404,306.47499 229.70705,307.84071 C 229.18438,309.8391 228.7837,309.8682 224.78715,308.19833 C 220.13273,306.25356 218.29032,306.71195 220.42475,309.2837 C 221.14596,310.15285 222.93429,313.92617 224.39843,317.66888 C 225.86258,321.41157 228.97247,328.46862 231.3091,333.35122 C 236.61358,344.43534 236.96742,348.52145 232.12034,342.72041 C 229.06142,339.05958 228.119,338.68736 221.93293,338.6975 C 218.18375,338.70363 210.107,337.29969 203.9846,335.5776 C 190.02808,331.65192 173.44246,330.32971 165.62205,332.5193 C 161.16866,333.76616 160.10362,334.54923 160.74918,336.10232 C 161.20326,337.1954 162.08236,340.31781 162.70262,343.041 C 164.54239,351.11949 167.75857,359.78575 172.579,369.65406 C 179.49971,383.82222 182.11656,393.51515 182.93859,408.02636 C 183.34362,415.17475 183.93849,422.74608 184.26058,424.85152 C 184.71044,427.79188 183.98053,429.76898 181.11328,433.37698 C 175.01025,441.05668 176.32626,445.31941 189.14622,459.39574 C 198.07971,469.20466 218.85651,497.96094 223.54616,507.00689 C 228.90489,517.34373 230.39466,518.73485 237.25655,519.8101 C 239.89299,520.22318 247.05249,523.4055 253.16669,526.88181 C 259.2809,530.35817 264.60493,532.88092 264.99782,532.4878 C 265.39088,532.09485 265.01633,528.2711 264.16558,523.99067 C 262.97025,517.97713 262.95003,515.48073 264.07655,513.00831 C 265.73799,509.36191 264.56044,506.93999 250.90881,485.92417 C 243.08456,473.87933 224.41729,443.08936 224.41729,442.22892 C 224.41729,441.96922 219.33521,432.64279 213.12397,421.50357 C 188.72787,377.75233 183.50274,366.2719 184.68267,359.01325 C 185.71892,352.63736 187.59102,353.65778 189.2069,361.47935 C 190.31163,366.82653 207.91386,402.7129 226.60969,437.73395 C 228.97207,442.15912 232.19847,448.35675 233.77929,451.50644 C 235.36023,454.6561 239.68266,461.92832 243.38476,467.66699 C 247.0868,473.40565 251.28832,480.3994 252.72141,483.20865 C 255.79941,489.24199 258.24144,491.28942 257.29194,487.04088 C 256.93699,485.45198 254.38748,474.72001 251.62674,463.19197 C 248.86588,451.66394 246.92485,441.40368 247.31334,440.39139 C 247.70172,439.37907 247.56358,438.22772 247.00619,437.83294 C 246.44881,437.43808 242.29387,422.15597 237.77285,403.87269 L 229.55288,370.63038 L 232.10809,363.95316 C 235.95809,353.89244 237.5703,355.27915 237.65661,368.72571 C 237.72796,379.84643 240.3792,394.6054 250.942,442.6852 C 252.66192,450.51443 255.20685,462.19345 256.59727,468.63868 C 260.52512,486.84554 261.41284,489.47104 265.09022,493.76136 C 266.97915,495.96506 269.72319,499.71759 271.18818,502.10037 C 274.90535,508.14629 295.11111,527.47989 305.47013,534.9025 C 310.22079,538.30649 324.42389,547.85127 337.03277,556.11318 C 372.41189,579.29504 379.17003,584.14973 381.08431,587.75768 C 383.23601,591.81321 383.34264,593.78044 381.27115,591.20548 C 378.53259,587.80137 367.12553,579.61922 349.37037,568.32353 C 298.59594,536.02106 281.52609,523.22108 270.06064,508.85255 C 267.14116,505.19389 264.52962,502.42338 264.25719,502.69582 C 263.98465,502.96826 265.41301,506.23981 267.4312,509.96595 C 269.91049,514.54367 270.50219,516.51114 269.25556,516.03274 C 267.67959,515.42801 267.54094,516.57178 268.30544,523.87579 C 268.79763,528.57886 270.54289,539.60331 272.18396,548.3744 C 273.82518,557.1456 275.16779,564.52603 275.16779,564.77548 C 275.16779,565.02494 275.91615,565.22895 276.83103,565.22895 C 277.74574,565.22895 285.38755,572.60949 293.81259,581.63009 C 302.23775,590.65062 311.45151,599.98067 314.28756,602.36349 C 317.12366,604.74624 320.95024,608.50614 322.79113,610.71876 C 326.25365,614.88031 330.01407,615.90854 331.7363,613.16468 C 332.2807,612.29732 334.11877,610.70498 335.82068,609.62611 C 339.88056,607.05262 364.93143,597.67153 370.47955,596.64702 C 377.62426,595.32767 373.4613,598.00109 360.5771,603.00628 C 345.37067,608.9136 342.56651,610.39225 335.64896,616.15083 C 329.28717,621.44663 326.45998,622.11223 325.33832,618.57812 C 324.92759,617.28423 323.30036,615.90143 321.72213,615.50538 C 320.14396,615.10921 309.64116,605.3586 298.38261,593.83728 C 287.12406,582.31595 276.51937,571.97652 274.81644,570.86074 C 271.35871,568.59517 269.94628,564.10757 267.58921,547.8996 L 266.05918,537.37811 L 256.68804,532.7565 C 245.27663,527.12866 233.89033,523.14324 229.22305,523.14324 C 227.24583,523.14324 224.66511,521.9771 223.22766,520.43423 C 220.43801,517.43988 220.12455,516.22045 221.86767,515.14313 C 223.67441,514.0266 220.92021,507.39278 214.72692,497.94326 C 207.85583,487.45956 183.77264,462.20133 176.69008,458.05068 C 168.48429,453.24181 168.06052,448.49568 174.25889,430.82335 C 181.85825,409.15656 180.18276,393.30789 167.70409,368.82029 C 159.68464,353.08319 157.03194,348.63222 155.66602,348.6214 C 154.95656,348.6158 148.94622,352.00808 142.30996,356.15984 C 132.9912,361.98978 129.55074,363.53444 127.19911,362.94422 C 125.52439,362.52391 124.15415,361.6726 124.15415,361.05246 C 124.15415,359.31556 142.64826,349.49581 148.91054,347.90767 C 154.15593,346.57744 154.50344,346.2241 154.87279,341.84801 C 155.17457,338.27262 154.67516,336.78771 152.70669,335.40898 C 150.56244,333.90705 150.14177,332.27605 150.10773,325.33196 C 150.08555,320.77516 149.56655,313.15891 148.95474,308.40695 C 148.19092,302.47592 148.26216,299.26089 149.18178,298.15276 C 150.13946,296.99881 150.14177,295.75641 149.1898,293.79563 C 148.45731,292.28705 147.50934,288.05786 147.08303,284.39743 C 146.45028,278.96344 146.62861,277.86515 148.0551,278.41254 C 149.05178,278.79501 151.50363,277.27909 153.76355,274.88313 C 155.94234,272.57322 159.91931,270.02585 162.60124,269.2223 C 168.07203,267.5832 167.98752,267.7051 166.10069,264.17966 C 165.09604,262.30232 165.09114,260.40017 166.08285,257.1436 C 166.83036,254.68886 167.69546,250.77152 168.00537,248.4384 C 168.31516,246.10527 169.47764,243.68763 170.5888,243.06586 C 172.16658,242.18282 172.44188,240.80836 171.84639,236.78646 L 171.08403,231.63757 L 174.02773,235.11488 L 176.9712,238.59219 L 187.8722,237.14154 C 193.86769,236.34369 200.78321,235.9631 203.23986,236.29577 C 210.06979,237.22061 227.87897,244.55463 236.14991,249.84839 C 240.71643,252.77109 244.27154,254.26111 245.43361,253.73932 C 253.07903,250.30645 276.98858,243.17674 286.35871,241.53556 C 288.71369,241.1231 292.86852,240.27273 295.59173,239.64585 C 304.122,237.68219 309.41739,238.27717 316.90706,242.0408 C 326.80635,247.01542 349.26667,257.08532 361.46878,262.01972 C 371.21504,265.96101 372.26332,266.79048 386.32608,281.68818 C 394.40124,290.24268 403.46926,300.12516 406.4773,303.64921 C 409.48524,307.17329 412.36425,310.09763 412.87478,310.14773 C 416.10191,310.46456 412.15668,304.57695 400.82864,292.17114 C 393.69258,284.3562 385.76457,275.4625 383.21077,272.40738 C 378.53096,266.80878 371.35622,262.76482 348.19892,252.67313 C 343.09297,250.44801 332.23114,245.46395 324.06148,241.59746 L 309.20774,234.56747 L 297.44848,236.66352 C 280.54837,239.67593 248.2289,247.80163 246.09131,249.57567 C 244.61429,250.80159 243.54435,250.47333 240.40364,247.83056 C 238.27604,246.0403 231.18208,241.943 224.63942,238.72546 L 212.7436,232.87539 L 193.85483,233.01878 C 176.436,233.15102 174.90897,232.98247 174.23298,230.85261 C 173.16608,227.49115 174.66556,223.83449 177.4766,222.9423 C 178.82147,222.51544 180.80658,220.81589 181.88794,219.16553 C 184.26787,215.53336 187.2828,215.23641 187.2828,218.63417 C 187.2828,220.34762 185.57785,221.90488 181.71266,223.72174 C 175.97006,226.42108 175.54279,226.93925 177.08974,229.32897 C 177.71888,230.30082 179.90672,230.41895 184.18833,229.71221 C 192.81135,228.28886 206.6513,228.36368 213.27695,229.8695 C 219.35609,231.25113 240.21701,242.54488 242.59328,245.74084 C 243.86786,247.45527 244.44974,247.49789 246.81663,246.05027 C 249.87396,244.18028 273.55118,238.25522 286.92699,236.0129 C 291.69261,235.214 298.42574,233.76348 301.88956,232.78951 C 305.35345,231.81555 308.96946,231.01867 309.9251,231.01867 C 310.88075,231.01867 318.35156,234.31779 326.52687,238.35005 C 334.70202,242.38231 350.03958,249.81404 360.61018,254.86502 C 378.97572,263.64069 380.1561,264.42843 387.18456,272.59941 C 391.22989,277.30235 397.3516,284.21381 400.78856,287.95822 C 404.22546,291.70258 409.03607,297.2109 411.47877,300.19891 C 414.01818,303.30516 416.26483,305.07373 416.72512,304.32888 C 417.36983,303.28582 410.6428,294.30747 402.04395,284.73427 C 401.36311,283.97634 398.57804,280.7063 395.85483,277.4675 C 380.73567,259.48577 382.26761,260.56283 346.45349,242.73552 C 316.07212,227.61246 312.57227,226.1557 309.20774,227.23336 C 307.16533,227.88753 296.02667,230.18545 284.45522,232.33983 C 272.88388,234.49421 259.79392,237.4582 255.36655,238.92646 L 247.31689,241.596 L 244.63569,239.05707 C 243.16088,237.66065 236.75522,233.75672 230.40082,230.38169 C 218.90004,224.27333 218.79329,224.24516 207.08789,224.22795 C 200.6203,224.21845 192.96128,224.63502 190.06788,225.15367 C 186.79773,225.73984 184.80719,225.63477 184.80719,224.876 C 184.80719,223.35291 191.62358,219.73965 193.67514,220.17531 C 194.50886,220.35236 195.50045,219.05487 195.87878,217.29196 C 197.039,211.88375 207.41303,195.32448 209.20899,196.01364 C 210.10209,196.35636 211.62804,195.97681 212.6,195.17017 C 213.57195,194.36354 215.42881,193.88343 216.72638,194.10325 C 218.02399,194.32309 219.86748,193.90623 220.82306,193.17689 C 223.07734,191.45646 250.34504,182.26495 251.06348,182.98338 C 251.90515,183.82489 240.68397,191.40855 238.59724,191.40855 C 235.57576,191.40855 221.94168,195.46095 221.94168,196.35905 C 221.94168,197.59138 236.02865,201.28937 236.77492,200.25294 C 237.92808,198.65139 255.92777,187.96752 258.23245,187.51658 C 259.47041,187.27436 261.41663,185.53315 262.55714,183.64722 C 264.49897,180.43649 264.49755,180.00316 262.53304,176.83923 C 255.96141,166.25604 255.00815,163.54722 255.13973,155.83212 L 255.27166,148.08499 L 248.37838,148.08499 C 244.58715,148.08499 238.06266,147.20278 233.87949,146.12454 C 222.82264,143.27448 218.20858,140.16385 211.22826,130.85413 C 209.94859,129.14751 209.29846,129.18277 205.03914,131.18976 C 202.42161,132.42317 197.77335,135.00184 194.7097,136.92013 C 187.65809,141.33553 182.44515,142.4112 179.39635,140.08 C 177.68863,138.77429 177.29658,137.44653 177.90398,135.0264 C 178.66092,132.0103 179.15051,131.78565 183.93369,132.2591 C 188.30438,132.69173 190.40234,132.00554 197.01207,127.98148 C 207.34371,121.69148 208.32944,122.89926 198.22146,129.46337 C 191.82071,133.61994 189.55215,134.46087 185.89324,134.0332 C 181.04102,133.46603 177.84538,134.69291 179.05917,136.65684 C 180.92134,139.66994 185.27285,138.80246 197.2215,133.03614 C 209.76903,126.9808 209.84761,126.91521 209.08921,123.12312 C 208.66916,121.02357 208.32566,118.26135 208.32566,116.98485 C 208.32566,113.86537 206.37859,114.04207 194.39799,118.24894 C 177.40254,124.21662 178.86612,123.83349 181.60529,121.59816 C 182.90788,120.53523 186.52847,118.75072 189.65116,117.6326 C 192.77375,116.51446 197.65538,114.77189 200.4991,113.76023 C 203.71511,112.6162 205.44112,111.32528 205.06511,110.34539 C 204.70733,109.41283 206.00692,108.23087 208.24979,107.44897 C 210.33398,106.72245 212.03911,105.24922 212.03911,104.17512 C 212.03911,102.41737 211.63713,102.42756 208.01626,104.27708 C 205.8037,105.40724 202.44386,107.42162 200.55008,108.75345 C 198.65629,110.08527 192.5475,113.01427 186.97487,115.26232 C 179.04517,118.46128 176.18231,119.0985 173.80362,118.19411 C 167.10691,115.64801 165.34409,119.58853 171.50069,123.34223 C 173.84235,124.77003 174.68809,125.79698 173.52425,125.79967 C 170.97204,125.80557 165.00217,121.15022 165.00217,119.15403 C 165.00217,115.99178 167.5633,114.99956 173.07045,116.0284 C 177.87875,116.92671 179.57022,116.54471 187.54084,112.76049 C 192.50494,110.40366 199.90851,106.53274 203.99335,104.15841 C 208.07812,101.78407 211.97724,99.637286 212.65808,99.387748 C 213.33887,99.138201 212.80378,97.704334 211.46891,96.201385 C 209.83259,94.359053 208.21948,93.709788 206.51762,94.208586 C 205.12929,94.615503 199.25867,96.256998 193.47192,97.856358 C 187.68513,99.4557 181.55793,101.1614 179.85591,101.64679 C 177.08049,102.43829 177.14433,102.29125 180.47483,100.22125 C 182.51724,98.951798 188.36591,96.902811 193.47192,95.667947 C 207.48399,92.279164 207.48033,92.280564 206.09696,90.897241 C 204.96548,89.765742 194.2686,92.318909 183.41626,96.310777 C 181.62996,96.967798 178.14864,97.126421 175.67991,96.66329 C 171.94603,95.96282 171.19129,96.176117 171.19129,97.931561 C 171.19129,99.092257 172.30522,100.33326 173.66685,100.68932 C 176.52785,101.43748 177.01546,103.52361 174.32934,103.52361 C 172.20412,103.52361 169.95346,99.78837 169.95346,96.261502 C 169.95346,93.223746 173.929,91.774054 177.30505,93.580798 C 178.89993,94.434412 180.58993,94.501042 181.9935,93.765662 C 184.84332,92.272599 199.1662,88.257211 201.64221,88.257211 C 202.98781,88.257211 203.33989,87.492416 202.82918,85.67842 C 199.213,72.835637 201.67382,63.515052 211.47545,52.928057 C 219.21514,44.568261 230.92659,38.520233 243.21388,36.537772 C 247.513,35.844163 254.22473,34.478725 258.1291,33.503459 C 269.49637,30.664027 284.3776,31.500234 294.35389,35.538994 C 295.71547,36.090214 299.33616,36.914274 302.39971,37.370232 C 305.4633,37.826198 308.68372,38.776171 309.55643,39.481292 C 310.65856,40.371913 312.6819,40.30224 316.18377,39.253048 C 327.0102,36.009368 349.72233,41.327468 355.67499,48.500012 C 356.6146,49.63225 360.19082,51.87117 363.62195,53.475381 C 367.05338,55.079584 372.84447,58.136408 376.49119,60.268328 C 381.28899,63.073041 383.49585,63.770433 384.47508,62.791201 C 387.86733,59.399036 395.23586,63.079702 395.23586,68.166288 C 395.23586,69.672385 395.85918,70.128264 397.20974,69.609998 C 399.58103,68.700023 409.86718,73.038517 411.8868,75.800529 C 412.71706,76.936114 414.59893,77.584475 416.34809,77.337571 C 420.5583,76.743302 425.84658,81.589324 425.61989,85.834009 C 425.52324,87.642292 424.80384,89.335244 424.02134,89.59612 C 423.14608,89.887864 422.69244,88.770538 422.84255,86.693067 C 423.06264,83.649449 422.36143,83.031417 415.74679,80.438862 C 411.70977,78.856597 408.19479,77.77393 407.9358,78.032946 C 407.6767,78.291952 404.68406,77.770304 401.28538,76.873736 C 395.86996,75.44519 394.67074,75.493352 391.58698,77.263168 C 388.70827,78.915289 387.48155,79.015446 384.84393,77.813727 C 383.07077,77.005779 381.61995,75.497265 381.61995,74.461472 C 381.61995,73.054672 380.21068,72.578204 376.04981,72.578204 C 371.92366,72.578204 370.47955,73.059585 370.47955,74.434935 C 370.47955,76.769987 369.21451,76.773378 364.74147,74.45029 C 362.79141,73.43754 361.02418,73.117372 360.81419,73.738822 C 360.31201,75.225172 365.57563,81.242924 367.37786,81.242924 C 368.14947,81.242924 372.366,83.637181 376.74781,86.56352 C 391.63525,96.506197 407.18812,104.76143 411.03259,104.76143 C 414.82614,104.76143 416.27883,106.48299 416.27883,110.97869 C 416.27883,112.24443 415.62711,113.6828 414.83054,114.17506 C 413.83641,114.78956 413.64905,114.37534 414.23308,112.8534 C 415.36715,109.89796 412.98073,107.23706 409.19599,107.23706 C 404.60717,107.23706 378.16855,92.841209 374.38527,88.282574 C 372.66778,86.213146 364.54181,83.05465 363.5322,84.064132 C 363.20654,84.389907 366.16813,86.483482 370.1137,88.716516 C 383.03838,96.031354 373.08224,93.879662 357.80868,86.057192 C 353.67157,83.938298 353.85165,84.982446 358.1235,87.881822 C 363.02624,91.209409 371.2593,95.040811 378.52548,97.376185 C 381.24862,98.251441 387.09729,100.82548 391.52252,103.09626 C 395.94769,105.36705 400.17822,107.22769 400.9237,107.23102 C 401.66907,107.23434 403.34015,108.43247 404.6372,109.89353 C 407.37876,112.98226 407.52474,113.02781 394.62953,106.76999 C 389.19007,104.13032 382.64508,101.68965 380.0852,101.34629 L 375.43084,100.722 L 375.43084,106.52595 C 375.43084,120.76024 380.33148,129.34181 391.81092,135.20864 C 398.00185,138.37271 400.46951,142.90994 398.07681,146.7293 C 395.44094,150.93676 386.57124,148.52704 386.57124,143.60346 C 386.57124,139.83671 370.64534,126.58116 364.4975,125.23085 C 362.38644,124.76719 358.83042,123.16953 356.59529,121.68051 C 350.39555,117.5504 346.23683,115.99922 343.37216,116.74834 C 340.45551,117.51109 339.82473,119.61522 342.51283,119.61522 C 343.65718,119.61522 344.02671,120.4828 343.59153,122.14745 C 343.17335,123.74606 343.78657,125.36703 345.25466,126.54391 C 347.4785,128.32682 347.45847,128.37469 344.79487,127.64169 C 341.32484,126.6868 340.89249,130.25334 344.17602,132.74591 C 346.20765,134.28817 346.1884,134.39544 343.86661,134.47351 C 341.65428,134.54787 341.72033,134.74503 344.48547,136.32573 C 347.24322,137.90221 347.31057,138.10156 345.10439,138.15755 C 343.31916,138.20284 343.07755,138.50509 344.23805,139.24114 C 345.12308,139.80259 345.89136,141.60434 345.94538,143.24511 C 345.99929,144.88584 346.7639,147.89931 347.64464,149.9417 C 348.5252,151.9841 349.63907,155.32621 350.11997,157.3686 C 351.41262,162.85926 349.09941,159.83614 345.85811,151.79844 C 341.2177,140.29168 335.23123,129.27101 334.78409,131.41239 C 334.54605,132.55233 333.61422,133.12431 332.61788,132.74202 C 330.1981,131.81346 330.23535,131.92355 336.01199,142.76546 C 338.84041,148.07399 342.00619,154.0884 343.04735,156.13078 C 344.08834,158.17319 345.81249,160.56278 346.87889,161.441 C 348.59232,162.85208 348.52988,162.99601 346.34222,162.67882 C 344.79307,162.45421 342.75765,160.08359 340.90406,156.34472 C 338.79176,152.08435 337.64266,150.84101 336.90012,152.01236 C 336.10197,153.27134 335.85422,153.15923 335.83971,151.53253 C 335.81758,149.05868 331.67534,146.50866 328.63844,147.09931 C 326.60691,147.4944 322.72604,143.28712 319.557,137.2541 C 318.75225,135.7223 317.6263,134.469 317.05468,134.469 C 314.6993,134.469 316.2912,140.03488 320.43039,146.27066 C 324.81807,152.88092 327.9887,154.99702 332.72621,154.47651 C 335.10896,154.21469 335.11455,154.25789 332.87377,155.62918 C 328.8162,158.11231 322.76832,154.07434 317.00489,145.03393 C 311.83396,136.92321 309.8266,135.89302 309.8266,141.35005 C 309.8266,144.92434 308.88513,145.16572 306.49074,142.20536 C 304.92686,140.27181 304.8927,140.35518 306.17265,142.98168 C 306.96137,144.60006 307.13129,146.27112 306.5503,146.69513 C 304.72595,148.0269 301.70718,152.31781 303.24256,151.39694 C 304.04651,150.91475 305.05409,151.08634 305.48176,151.77825 C 305.90931,152.47014 305.6869,153.03625 304.98725,153.03625 C 304.28767,153.03625 304.08056,154.01102 304.52702,155.20243 C 305.17676,156.93626 304.98381,157.09814 303.5598,156.01348 C 302.5813,155.26817 300.86906,154.33506 299.75463,153.93992 C 298.18656,153.38385 297.881,153.80384 298.40242,155.79805 C 298.91724,157.76696 298.66532,158.13283 297.334,157.3494 C 296.09058,156.6177 296.15803,157.00528 297.56973,158.70311 C 300.2077,161.87579 301.3901,165.41441 299.8122,165.41441 C 299.11262,165.41441 298.88433,165.97143 299.30517,166.65223 C 299.72584,167.33302 299.38737,167.89004 298.55298,167.89004 C 297.71853,167.89004 297.38345,168.2377 297.80841,168.66262 C 298.23336,169.08752 297.41636,170.37814 295.99314,171.53065 C 293.77048,173.33042 293.61744,174.02233 294.90834,176.43426 C 296.56622,179.5322 296.4514,179.91046 293.73503,180.29718 C 289.71765,180.86912 287.54597,180.18178 287.54597,178.33842 C 287.54597,177.27704 286.9538,176.7746 286.23006,177.22186 C 285.50637,177.66914 283.83534,177.05867 282.51667,175.86525 C 279.34339,172.9935 279.47063,174.64311 282.78097,179.29201 C 285.38444,182.94827 285.38732,183.00064 282.91442,181.67718 C 279.13763,179.65593 274.32967,173.47082 272.70239,168.54039 C 271.91028,166.1403 270.74849,164.17659 270.12042,164.17659 C 269.49248,164.17659 268.97867,163.37394 268.97867,162.39293 C 268.97867,159.27061 266.80879,159.13565 266.21882,162.22129 C 265.78699,164.48058 266.09583,165.01799 267.51322,164.47403 C 270.6698,163.2628 268.43127,178.25381 264.43811,185.06738 C 260.58184,191.64771 256.14048,196.37689 253.87164,196.31863 C 252.94496,196.29483 253.42134,195.31482 255.00053,193.99665 C 260.45738,189.44189 256.2387,190.56846 247.23408,196.0707 C 242.16301,199.16929 238.26497,201.9555 238.57189,202.26226 C 238.87853,202.56905 243.08806,203.25456 247.92605,203.78565 C 253.21321,204.36604 257.62766,205.57045 258.9916,206.80473 C 261.80715,209.35275 263.95586,208.86366 281.97577,201.57316 C 289.46453,198.54334 297.26276,195.43008 299.30517,194.65481 C 301.34759,193.87954 303.73147,192.78885 304.60278,192.23104 C 305.61582,191.58249 307.63583,192.47858 310.20589,194.7167 C 317.22832,200.83201 322.87371,203.26116 326.16034,201.58184 C 327.72914,200.78022 330.6051,199.54661 332.55132,198.84047 C 335.65935,197.71276 335.88526,197.30715 334.40802,195.50573 C 332.90385,193.67157 333.05311,193.54253 335.82068,194.28452 C 349.37743,197.91913 357.49391,196.02287 364.77139,187.52074 C 372.03605,179.03374 374.31883,171.06614 375.11258,151.42753 C 375.61452,139.00821 376.17457,134.71758 377.16414,135.7071 C 378.00518,136.5479 378.52548,142.84 378.52548,152.16962 C 378.52548,171.23222 375.59313,181.874 367.94749,190.55994 C 361.94849,197.37525 355.9605,199.47182 346.03598,198.23183 C 342.32959,197.76876 338.74948,197.921 337.92141,198.57688 C 337.10645,199.22245 334.35851,200.42088 331.81505,201.24006 C 329.27159,202.05927 326.89837,203.20217 326.54132,203.77986 C 325.78044,205.01103 331.74014,208.18878 336.96052,209.33536 C 338.96269,209.77511 341.26472,210.93464 342.07585,211.91208 C 342.88703,212.88953 344.22812,213.68923 345.05618,213.68923 C 345.88418,213.68923 352.25682,216.47433 359.21756,219.87832 C 366.17846,223.28231 372.54974,226.0674 373.376,226.0674 C 375.8379,226.0674 390.85709,242.14084 396.86477,251.2051 C 402.70182,260.0119 404.89834,268.2195 403.32954,275.3622 C 402.71254,278.17107 403.28432,279.87419 405.94312,283.14838 C 407.815,285.45338 409.42213,287.47984 409.51465,287.65162 C 409.60711,287.8234 412.97718,286.35827 417.0037,284.39578 C 421.03016,282.43331 426.91078,280.21095 430.07164,279.45721 C 435.29603,278.21141 436.59071,278.40705 444.30651,281.60813 C 448.97487,283.54485 455.02241,286.40429 457.74562,287.9624 C 460.46883,289.5205 469.10257,294.26542 476.93178,298.50665 C 494.90985,308.24575 503.21478,313.25648 514.01873,320.8826 C 521.24941,325.98656 522.89916,327.83344 524.41405,332.51959 C 525.4043,335.58318 529.35726,345.33099 533.19834,354.18136 C 537.03942,363.03173 541.91417,374.45061 544.0311,379.55658 C 546.14796,384.66259 552.61002,398.3095 558.39112,409.8831 C 564.17216,421.45668 570.98386,435.10359 573.52829,440.20955 C 576.63038,446.43512 578.37887,451.88041 578.83623,456.74025 C 579.46147,463.38301 579.25159,464.23448 576.31912,466.95222 C 574.55957,468.58295 572.70932,469.91719 572.2073,469.91719 C 569.3156,469.91719 546.29073,508.50953 548.70283,509.31358 C 551.17433,510.13745 570.94452,531.29173 577.54126,540.17092 C 581.09513,544.9546 588.45897,554.81844 593.90543,562.09055 C 599.35184,569.36278 605.96184,578.47476 608.59434,582.33955 C 611.22694,586.20428 615.12605,591.36641 617.25901,593.81086 C 619.39214,596.25532 622.25139,599.84875 623.61302,601.79622 C 624.97459,603.74374 629.4307,609.40573 633.51547,614.37841 C 637.60031,619.35115 643.62312,626.89811 646.89976,631.14942 C 650.1764,635.40072 656.44285,642.60718 660.82523,647.16376 C 665.20756,651.72029 668.79332,656.51115 668.79332,657.81 C 668.79332,660.31678 658.92096,673.98139 653.47381,679.01442 C 649.41303,682.76637 649.45954,683.66392 653.98971,688.96384 C 656.19272,691.54118 657.65292,694.65823 657.65292,696.78363 C 657.65292,699.75442 658.04739,700.19247 660.12853,699.53206 C 661.99313,698.94024 662.6042,699.30959 662.6042,701.0285 C 662.6042,703.98229 642.66184,724.85005 641.89428,722.69947 C 641.5824,721.82557 642.05449,720.23435 642.94324,719.16349 C 643.83199,718.09258 645.13802,716.23978 645.84522,715.0461 C 646.55271,713.85252 648.7586,710.53761 650.74728,707.67965 L 654.36318,702.48332 L 651.57625,696.74716 C 649.14331,691.73937 639.86965,675.78029 632.27775,663.53623 C 630.91607,661.34027 626.22936,653.78004 621.8629,646.7357 C 612.07493,630.94512 604.75213,619.29706 595.29732,604.47844 C 591.29733,598.20921 584.45475,587.23122 580.09179,580.0828 C 575.72882,572.93443 568.27726,560.95857 563.53297,553.46974 C 558.78869,545.98098 554.34568,538.73974 553.65965,537.37811 C 549.81021,529.73846 542.63187,519.98997 540.57726,519.61179 C 538.53117,519.23519 538.65276,519.66219 541.45833,522.70637 C 543.24835,524.64864 545.347,528.22543 546.12183,530.65475 C 546.89683,533.08408 551.76485,543.38891 556.93967,553.55436 C 581.55954,601.91753 613.21284,665.17192 619.76832,679.10807 C 623.77141,687.61807 629.18107,699.03688 631.78974,704.48334 C 634.39841,709.92969 637.37377,716.78938 638.40167,719.7271 C 639.42957,722.66481 641.3964,726.49974 642.77264,728.24929 C 644.47998,730.41985 645.27479,733.2839 645.27479,737.26604 L 645.27479,743.10178 L 634.82731,750.12569 C 622.22751,758.59662 620.37595,762.25797 627.32647,764.95803 C 629.59722,765.84012 620.0398,774.54143 607.52139,782.989 C 583.84887,798.96337 535.52182,828.02699 515.3041,838.44782 C 503.95325,844.29836 496.7368,849.49074 496.7368,851.80722 C 496.7368,855.3092 486.25426,878.05025 479.5094,889.18049 C 473.03899,899.85807 447.56955,930.46283 439.51132,937.24337 C 437.52163,938.91751 436.48555,940.28732 437.20878,940.28732 C 438.01929,940.28732 438.32345,942.42377 438.00145,945.85743 C 437.57554,950.40248 437.85226,951.42762 439.50483,951.42762 C 441.08007,951.42762 441.20008,951.75769 440.04488,952.91299 C 439.22788,953.72997 438.55946,955.97172 438.55946,957.89497 C 438.55946,960.56303 437.75984,961.69547 435.18426,962.6747 C 430.35931,964.50908 415.52002,967.51921 411.30158,967.51921 C 408.19807,967.51921 401.69007,970.85261 396.83548,974.92874 C 396.01312,975.61904 394.06356,976.20169 392.50306,976.22326 C 389.7383,976.26169 389.72724,976.30925 392.07477,978.08468 C 395.70462,980.82987 392.77876,982.8239 385.36897,982.65513 C 381.94534,982.57713 379.14428,982.67712 379.14428,982.87737 C 379.14428,983.07762 379.75586,984.99565 380.50321,987.13957 C 381.49277,989.97849 382.63092,991.03772 384.69123,991.03772 C 386.79393,991.03772 387.68821,991.91183 388.1738,994.44173 C 388.53332,996.31394 388.1804,998.63255 387.38977,999.59413 C 382.56476,1005.4627 363.22127,1008.358 348.19892,1005.4601 z M 365.52832,1003.6564 C 365.52832,998.98122 351.00555,987.32426 345.18105,987.32426 C 340.35401,987.32426 340.41441,989.34811 345.31077,991.67159 C 348.96511,993.40572 349.45442,994.02393 347.87354,994.90865 C 345.43993,996.27055 339.73904,994.24983 338.75112,991.67524 C 337.98943,989.69034 328.39389,988.89988 328.39389,990.822 C 328.39389,992.14268 333.22207,996.53601 336.55944,998.25197 C 339.20531,999.61247 353.24188,1002.9445 359.95818,1003.8063 C 362.00059,1004.0683 364.08936,1004.3663 364.60001,1004.4683 C 365.11054,1004.5703 365.52832,1004.2049 365.52832,1003.6564 z M 306.11315,992.22711 C 316.66552,990.18596 330.03394,987.43599 335.82068,986.11617 C 341.60754,984.79618 354.67345,982.28394 364.85606,980.53337 C 376.48188,978.53465 384.77127,976.45437 387.13675,974.94161 C 389.20847,973.61693 393.54134,970.98704 396.76537,969.0977 C 399.98934,967.20836 402.63509,965.34328 402.64497,964.95331 C 402.66259,964.25362 385.7399,967.78571 378.52548,969.98763 C 376.483,970.61107 369.79882,972.03383 363.67163,973.14957 C 357.54444,974.26531 347.51807,976.57897 341.391,978.29136 C 325.09637,982.84502 304.49857,988.4007 292.58209,991.45621 C 286.65677,992.97558 281.90362,994.88213 281.58559,995.86727 C 281.16588,997.16718 281.76521,997.39359 283.97618,996.77016 C 285.59906,996.31263 295.56079,994.26817 306.11315,992.22711 z M 290.8593,988.04942 C 299.58923,985.72498 322.05005,979.36285 340.77203,973.91108 C 377.03667,963.35091 398.611,957.62829 402.27189,957.59821 C 403.54077,957.58769 408.83138,952.6677 414.42208,946.29931 C 450.86104,904.79031 461.10298,890.35702 478.07867,856.59254 C 488.2942,836.27394 490.01801,833.59888 496.44845,828.08734 C 504.41337,821.26056 514.88174,814.38343 529.53897,806.34856 C 561.13386,789.0288 584.7182,770.83159 596.58974,754.6134 C 599.33129,750.86817 602.47984,747.05227 603.58683,746.1336 C 605.33553,744.68227 605.37996,744.03327 603.92547,741.18379 C 603.00494,739.38009 600.76602,732.89117 598.9502,726.76403 C 592.92427,706.43059 585.05555,685.23515 575.28388,663.01644 C 566.61893,643.31472 548.24373,597.98189 539.91126,575.75042 C 535.82851,564.85762 530.53713,551.48926 528.15262,546.0429 C 525.768,540.59644 523.30605,534.88709 522.68161,533.35521 C 520.70766,528.51327 519.43206,530.3138 519.17368,538.30649 C 519.03623,542.56152 518.6119,547.07085 518.23074,548.32738 C 517.75442,549.89742 518.76499,551.63936 521.46223,553.89752 C 524.7309,556.63427 525.88999,559.14793 528.39941,568.94245 C 530.0564,575.41003 532.85931,585.15781 534.62799,590.60422 C 539.98735,607.10732 551.21085,639.95634 552.39066,642.5925 C 553.00009,643.95413 555.50506,650.85666 557.95724,657.93148 C 560.40932,665.0063 564.00061,674.75414 565.93786,679.59326 C 577.10169,707.48129 580.90839,717.86272 580.90839,720.42081 C 580.90839,721.99655 582.02232,724.29396 583.384,725.5262 C 586.55152,728.39284 586.54091,733.57303 583.35442,739.81894 C 579.68168,747.01806 558.7445,768.23766 543.54139,780.16903 C 536.26527,785.8794 529.96585,791.6421 529.54282,792.97499 C 528.28849,796.92689 522.85885,799.91772 509.27981,804.13645 C 501.04732,806.69403 495.23145,809.28458 493.01105,811.38305 C 491.11037,813.17924 486.6291,820.21905 483.05265,827.02715 C 461.10744,868.80103 448.48433,889.82328 431.27533,913.2562 C 428.29019,917.32094 419.51719,927.04213 411.77971,934.85903 C 404.04228,942.67584 397.71153,949.58202 397.71153,950.20606 C 397.71153,952.02497 393.30386,953.88683 385.64721,955.30212 C 381.73014,956.02615 376.29734,957.32944 373.57414,958.19825 C 370.851,959.06705 362.77419,961.56696 355.62582,963.7534 C 348.47738,965.93993 338.72966,969.00258 333.96398,970.55933 C 329.19843,972.116 318.61507,975.44697 310.44558,977.9613 C 302.27591,980.47581 292.21026,983.61105 288.07756,984.9287 C 279.02931,987.81335 276.54183,987.901 273.05357,985.45761 C 271.5879,984.43099 257.39919,980.22948 241.52332,976.12109 C 206.6452,967.09515 197.32757,965.04991 196.58221,966.256 C 195.73314,967.62955 204.11059,970.96965 213.89592,973.15905 C 218.66142,974.22532 231.47286,978.08538 242.36567,981.73711 C 253.25842,985.38875 264.25956,988.75876 266.81251,989.22594 C 269.36546,989.69312 271.45428,990.57045 271.45428,991.17545 C 271.45428,992.94132 274.06724,992.5203 290.8593,988.04942 z M 368.29894,983.97311 C 366.75921,983.67714 364.53114,983.68835 363.34772,983.99816 C 362.16419,984.30805 363.4241,984.55029 366.14724,984.53646 C 368.87045,984.52273 369.83862,984.26927 368.29894,983.97311 z M 286.73659,978.18207 C 290.24524,977.23866 297.0872,975.56948 301.94071,974.47278 C 306.79434,973.37608 312.36448,971.64481 314.31889,970.62559 C 316.27324,969.60627 318.86503,968.76885 320.07831,968.76459 C 321.29148,968.76042 324.35513,967.88249 326.88629,966.81352 C 329.41739,965.74456 339.56518,962.44193 349.43669,959.47424 C 359.30827,956.50664 371.56272,952.64779 376.66867,950.89923 C 381.77469,949.15057 387.90182,947.43914 390.28463,947.09594 C 393.3235,946.65833 395.35616,945.36225 397.09266,942.75462 C 398.45424,940.70999 400.26453,939.30105 401.11552,939.62337 C 401.9665,939.94578 402.66281,939.39391 402.66281,938.39685 C 402.66281,937.39988 406.37186,932.54346 410.90524,927.60487 C 415.43857,922.6662 423.09567,913.89094 427.92101,908.10406 C 432.74658,902.31728 436.98248,897.30417 437.33433,896.96367 C 439.29291,895.0686 447.22419,882.48608 447.22419,881.27399 C 447.22419,880.48561 447.69826,879.65489 448.27771,879.42796 C 449.89393,878.79504 469.56562,843.69473 477.56272,827.17471 C 481.5508,818.9364 486.37998,810.89081 488.54308,808.88113 C 492.10057,805.57587 503.88557,799.36254 510.61965,797.24176 C 512.17485,796.75195 516.68955,794.20176 520.65228,791.5747 C 524.61512,788.94752 528.09358,786.79812 528.38249,786.79812 C 530.30308,786.79812 551.21356,769.30773 561.11031,759.42333 C 580.67537,739.88284 585.30133,730.48527 576.88542,727.37731 C 570.62789,725.06636 537.68764,724.26748 527.23525,726.17317 C 518.2032,727.81982 493.15076,738.17935 488.69104,742.11166 C 485.65646,744.78733 477.21854,749.66359 475.62316,749.66359 C 472.87348,749.66359 475.0026,747.44014 483.03142,741.92729 C 487.74087,738.69344 491.86223,736.04757 492.18987,736.04757 C 492.5175,736.04757 496.11884,734.16355 500.19295,731.86068 C 514.66644,723.67972 529.60767,720.52772 553.0575,720.70836 C 563.10322,720.78582 571.88977,721.45063 573.96256,722.29026 C 575.9291,723.08699 577.74025,723.53656 577.98739,723.2896 C 578.23441,723.04251 575.71776,716.48195 572.395,708.7106 C 569.07224,700.93919 565.94125,693.18821 565.43766,691.48625 C 564.93378,689.78428 563.53992,686.16358 562.33985,683.44038 C 559.56866,677.15196 547.24643,642.67373 543.98074,632.07107 C 542.61776,627.6459 540.54254,621.79718 539.36906,619.07403 C 538.19575,616.35077 536.81081,612.45171 536.29146,610.40925 C 535.77235,608.36689 533.83301,602.51822 531.9823,597.4122 C 530.13136,592.30619 526.58681,581.1659 524.10533,572.6559 C 519.70031,557.54927 517.59828,554.02019 516.73267,560.27772 C 516.03586,565.31549 511.59071,569.06066 511.59071,564.61009 C 511.59071,563.51541 510.44754,562.7456 508.80558,562.73443 C 504.83822,562.70739 503.83488,561.8433 497.14679,552.69338 C 493.85768,548.19365 486.88961,539.84329 481.66223,534.13704 C 476.43496,528.43085 471.02248,522.3696 469.63472,520.6676 C 467.4956,518.04395 467.10525,517.91505 467.07036,519.82066 C 467.04773,521.05677 467.51897,523.00635 468.11746,524.15302 C 468.79423,525.44996 468.55065,528.57672 467.47257,532.42689 C 465.46933,539.58046 464.3094,548.03587 461.44439,576.36934 C 458.92255,601.30844 454.26356,635.42493 450.87933,653.73285 C 446.81628,675.71311 437.30604,721.3423 435.52883,727.38284 C 434.62743,730.44649 433.18514,736.13665 432.32388,740.02774 C 430.4782,748.3653 428.00935,748.27215 429.1331,739.90728 C 430.16163,732.25091 438.08624,691.02448 441.05799,677.87024 C 447.89673,647.59859 452.05416,622.71917 457.08888,581.93949 C 458.79333,568.13285 460.65082,542.33708 461.07142,526.62914 C 461.40662,514.11321 461.26562,513.23434 458.44142,510.22808 C 456.80019,508.48107 455.13667,507.05155 454.7448,507.05147 C 453.69082,507.05121 454.17916,567.17738 455.24697,568.90531 C 455.77975,569.76736 454.70505,571.8993 452.66348,574.03023 C 449.51696,577.31449 448.63533,577.59922 443.83939,576.88005 L 438.51102,576.081 L 439.77421,579.40302 C 440.46877,581.2302 441.59732,583.7718 442.28194,585.05112 C 443.19248,586.75236 442.89905,588.97406 441.18952,593.32302 C 439.90382,596.59328 438.19321,602.61102 437.38801,606.69579 C 428.5244,651.66006 420.81001,677.13593 407.01301,707.00542 C 404.52312,712.39577 399.78262,722.94576 396.47855,730.44977 C 362.4369,807.76382 364.66187,803.13288 361.81488,802.59672 C 360.40199,802.33067 359.80029,799.73426 359.29817,791.73744 C 358.9352,785.95719 358.75478,781.03706 358.89709,780.80382 C 359.03946,780.57051 360.16337,783.21637 361.39489,786.68337 C 362.62629,790.15047 364.01682,792.98708 364.48502,792.98708 C 364.95322,792.98708 366.00409,790.9634 366.82052,788.48988 C 367.63679,786.01647 370.80036,778.35745 373.85041,771.46992 C 413.50465,681.92633 422.79118,657.91415 428.71933,629.59546 C 437.2199,588.98902 438.89974,576.47304 435.88,576.24392 C 432.67873,576.00107 425.55547,576.60678 424.97929,577.17094 C 424.65865,577.48485 424.99334,578.12923 425.72318,578.60279 C 426.45309,579.0764 427.44536,581.13496 427.92846,583.17732 C 430.39572,593.60742 430.39505,593.61193 425.86132,597.77207 C 423.4802,599.95696 417.75697,608.15028 413.14292,615.97944 C 408.52881,623.80866 401.14222,635.78452 396.72823,642.5925 C 392.31417,649.40048 386.91338,657.75575 384.72623,661.15974 C 371.72247,681.39971 368.41901,685.89595 361.44423,692.84816 C 357.61907,696.6609 348.5519,704.45913 341.29487,710.17762 C 323.46491,724.22773 297.709,745.39309 292.94896,749.90683 C 287.70996,754.87493 283.6245,754.32833 282.43933,748.50066 C 281.96312,746.15895 279.32092,739.75323 276.56758,734.26579 C 271.47602,724.11777 271.01973,722.13186 269.01293,701.38876 C 267.24114,683.07266 267.1327,634.28244 268.85679,631.06101 C 270.58772,627.82665 273.37442,627.35818 272.05203,630.52378 C 270.83198,633.44461 270.67228,671.23583 271.83114,682.82157 C 274.12205,705.7249 276.79095,722.19803 278.9505,726.76403 C 281.79529,732.77884 288.42083,740.99976 290.42119,740.99654 C 291.22244,740.99524 295.85636,738.34943 300.71851,735.11699 C 327.26953,717.46498 365.55367,683.66392 374.67102,669.82448 C 376.91344,666.42049 383.63561,656.22573 389.6091,647.16941 C 395.58246,638.11314 400.18788,630.42149 399.8433,630.07686 C 399.49879,629.73223 393.16866,635.49612 385.77654,642.88547 C 378.38441,650.27484 369.55129,658.80262 366.14724,661.83619 C 352.4539,674.03914 342.4071,682.50782 338.29635,685.31203 C 331.46861,689.96972 320.87312,698.55858 314.55699,704.55532 C 311.37214,707.57935 307.88179,710.05349 306.80071,710.05349 C 304.07695,710.05349 301.67376,703.78528 299.91913,692.10511 C 299.10094,686.65876 295.07916,669.11275 290.98174,653.11393 C 286.88449,637.11516 282.06603,618.22243 280.27425,611.12999 C 278.48253,604.03762 276.34855,598.0121 275.53211,597.74001 C 274.6261,597.43794 273.23951,600.05107 271.97356,604.44615 C 270.17253,610.69945 268.57607,612.95022 259.84145,621.54959 C 244.86177,636.2976 235.45557,647.01671 233.22924,651.87609 C 231.5866,655.46123 231.27049,660.79835 231.39569,682.82157 C 231.54404,708.88102 233.24121,726.53248 238.59628,757.7094 C 239.53165,763.1558 240.96977,771.8657 241.79191,777.06474 C 242.78193,783.32522 244.23263,787.70393 246.08786,790.03051 L 248.88903,793.54356 L 254.91088,790.86411 C 261.44892,787.95512 290.92766,780.05365 299.92409,778.79888 C 302.98763,778.37161 308.7339,776.84499 312.69364,775.40635 C 319.31127,773.00198 320.69029,771.78136 329.76276,760.29876 C 335.19121,753.42823 342.48635,743.48999 345.97428,738.21384 C 349.46221,732.93757 352.48189,728.62073 352.68477,728.62073 C 353.41586,728.62073 344.61571,746.18294 337.95946,758.00757 C 334.21954,764.65161 329.91178,772.59413 328.38667,775.65773 C 326.86173,778.72138 325.39799,781.46586 325.13409,781.75675 C 324.87012,782.04758 319.22919,782.70528 312.59857,783.21818 C 298.09951,784.3399 278.989,790.18659 261.87721,798.73594 C 249.24545,805.04693 247.43651,805.02114 242.60209,798.46098 C 240.36672,795.42752 236.959,784.53973 236.04626,777.51442 C 235.78084,775.47211 234.76835,769.62339 233.79617,764.51732 C 232.26006,756.44966 231.10842,747.84099 228.74542,726.76403 C 228.44003,724.04077 227.61304,712.90043 226.90718,702.00773 C 225.06878,673.63084 224.74453,671.68117 221.8658,671.68117 C 220.54595,671.68117 219.46606,672.22755 219.46606,672.89541 C 219.46606,674.3819 216.50932,675.12547 205.01414,676.53 C 192.04261,678.11494 177.92035,682.6266 174.08576,686.41071 C 169.17405,691.25757 163.54791,704.11224 163.61502,710.33405 C 163.64636,713.24336 165.39704,721.75082 167.50539,729.23965 C 170.93236,741.41274 174.11382,754.60431 177.45097,770.47974 C 178.06876,773.41864 178.88006,776.31791 179.25376,776.92271 C 179.99669,778.1247 188.46752,818.63953 188.50032,821.14743 C 188.5321,823.57376 185.56769,822.95897 183.83168,820.17914 C 182.96754,818.79561 181.74444,813.64314 181.11367,808.72933 C 179.56739,796.6841 172.47361,762.9208 171.21359,761.60993 C 168.99714,759.30383 167.54259,777.50228 169.15102,787.41699 C 174.67651,821.47817 171.97374,814.6545 196.5664,856.63205 C 209.77162,879.17202 211.96973,882.26282 216.37153,884.47933 C 219.09473,885.85055 223.41728,887.29732 225.97728,887.69422 C 228.53735,888.09117 239.70563,893.03596 250.79568,898.68268 C 261.88562,904.3293 272.49544,909.33475 274.37286,909.80602 C 287.02782,912.98214 337.78875,893.79339 356.72738,878.67396 C 375.9224,863.34994 403.0001,836.28742 415.95413,819.48047 C 417.47748,817.50393 426.41132,806.41748 435.80707,794.84388 C 445.20272,783.27034 455.25347,770.59817 458.14201,766.68359 C 461.0305,762.76902 464.21185,759.5661 465.21152,759.5661 C 467.51847,759.5661 467.51271,755.92338 465.19216,747.20304 C 463.95975,742.57178 463.58944,737.05741 464.02879,729.87364 C 464.383,724.07854 464.9194,689.53669 465.22067,653.11393 C 465.52194,616.69122 465.97049,584.1057 466.21746,580.70166 C 466.46448,577.29772 467.08521,566.65239 467.59704,557.04545 C 468.10887,547.43846 468.95371,538.88889 469.4744,538.04632 C 471.55097,534.68641 471.97468,546.22896 470.7951,574.02097 C 469.6958,599.91897 468.4701,668.67126 468.17125,721.19383 C 468.07546,738.02467 468.43978,741.74761 471.13832,751.52028 C 472.8303,757.64754 475.9951,772.12994 478.17131,783.70354 C 480.34768,795.27708 482.41194,805.99969 482.75865,807.53152 C 483.49984,810.80574 481.30807,811.30407 480.03681,808.15039 C 479.55659,806.95901 478.12823,801.2496 476.86268,795.46275 C 472.11536,773.75412 469.56799,763.14531 468.80699,761.91408 C 467.58253,759.93285 455.19995,775.02842 430.11844,809.07876 C 416.95058,826.95523 413.97685,830.20551 383.45266,860.08453 C 374.61553,868.73504 364.58019,878.76134 361.15204,882.36528 C 357.03159,886.69702 352.62663,889.84129 348.15495,891.64227 C 344.43467,893.14067 335.26375,896.95011 327.77492,900.10761 C 320.28616,903.26512 306.7849,908.35091 297.77216,911.4093 C 279.46357,917.62231 280.0344,917.63735 265.42848,910.56205 C 261.36024,908.59142 254.50704,905.49643 250.19878,903.68422 C 245.89046,901.87201 238.08597,898.23854 232.85543,895.60986 C 227.62489,892.98114 220.94065,890.47358 218.00169,890.03745 C 210.76571,888.96371 207.60824,886.75031 204.46002,880.54449 C 202.99718,877.66114 197.08647,867.24504 191.32513,857.39774 C 185.56374,847.55044 178.05527,833.92432 174.63942,827.11752 C 168.07943,814.04535 167.36257,810.52744 164.32161,776.49448 L 163.45624,766.80976 L 167.42523,762.71482 C 170.60387,759.4353 171.15065,758.15948 170.17113,756.30786 C 169.49835,755.03633 167.31809,748.4258 165.32608,741.61777 C 163.33407,734.80979 161.19287,729.23965 160.56809,729.23965 C 159.94318,729.23965 159.28159,731.18921 159.09779,733.57196 C 158.48914,741.46361 157.57725,743.41034 153.53442,745.44954 C 151.33151,746.56059 144.61888,750.54279 138.61706,754.29881 L 127.70477,761.12801 L 128.46939,765.65377 C 128.88989,768.14294 128.61407,772.94389 127.8564,776.32259 C 127.09871,779.70135 126.22181,785.25078 125.90778,788.65482 C 125.59375,792.05887 124.53364,803.1991 123.55203,813.41113 C 122.57045,823.62311 121.39594,837.59001 120.94202,844.44874 C 120.14024,856.56398 120.20065,856.98695 123.06381,859.30253 C 126.73905,862.27479 131.27049,869.19454 137.02568,880.62279 C 142.96343,892.41371 158.86358,918.86552 166.95484,930.41362 C 180.31925,949.48777 189.39341,957.45439 199.44636,958.93924 C 209.34018,960.40069 243.48806,969.7313 268.97867,977.93835 C 276.13133,980.24131 278.9347,980.27982 286.73659,978.18207 z M 223.17951,865.00974 C 223.17951,864.45501 225.2116,863.03212 227.69528,861.84775 C 230.17897,860.66331 234.62982,857.71233 237.58605,855.28984 C 240.5424,852.86746 245.74391,848.8594 249.14509,846.38317 C 252.54614,843.90687 260.96785,837.7033 267.85961,832.59724 C 274.75147,827.49128 281.43938,822.70715 282.72181,821.96601 C 284.00401,821.22471 286.03181,819.7578 287.22798,818.70619 C 288.42404,817.65453 291.63074,815.67444 294.35389,814.30592 C 297.07709,812.93752 300.41819,810.58699 301.77887,809.08266 C 303.13931,807.57838 308.00061,803.83275 312.58176,800.75922 C 319.79561,795.9192 322.08596,793.35282 329.68491,781.59395 C 334.51042,774.12674 339.45798,766.25496 340.67928,764.10106 C 346.71751,753.45301 348.33248,750.62995 354.95734,739.14222 C 370.1999,712.71127 384.74672,689.1447 399.72601,666.61473 C 405.42603,658.04139 410.0897,650.21036 410.0897,649.21245 C 410.0897,648.21452 410.8546,646.3519 411.78952,645.07331 C 413.43572,642.82191 413.51554,642.83089 414.31725,645.35674 C 415.21328,648.17991 415.73538,650.45215 416.8107,656.20852 C 417.43317,659.54036 416.86443,660.4045 411.27567,664.61843 C 407.84983,667.20159 401.79213,673.70479 397.81416,679.06996 C 388.67778,691.39214 342.5437,763.05707 338.02653,771.94433 C 337.16137,773.64624 334.36168,778.65064 331.80477,783.06497 C 328.71877,788.39295 327.15607,792.62845 327.15607,795.66416 C 327.15607,801.2036 325.55531,802.93226 316.3302,807.35552 C 309.97133,810.40449 301.23204,816.08799 273.80887,835.00838 C 249.63914,851.68404 246.84328,853.66871 244.00695,856.16346 C 241.41968,858.43918 226.43509,866.01832 224.52314,866.01832 C 223.78415,866.01832 223.17951,865.56447 223.17951,865.00974 z M 329.63173,969.56036 C 336.78011,967.27983 347.75245,963.81653 354.0149,961.86432 C 360.2773,959.91195 365.22502,958.13869 365.01006,957.92366 C 363.81676,956.73045 317.97566,970.34152 315.45867,972.63622 C 313.46271,974.45591 316.03875,973.89691 329.63173,969.56036 z M 192.58775,965.5151 C 193.438,964.6649 192.17239,963.28022 186.664,959.03349 C 176.56036,951.24433 156.93028,925.41225 141.58244,899.70877 C 138.62197,894.75088 135.95968,890.93467 135.66614,891.22821 C 134.96903,891.92536 141.58813,904.93317 145.69865,910.94411 C 147.46509,913.52731 148.91054,915.88705 148.91054,916.18807 C 148.91054,917.0307 164.5127,940.20802 169.29965,946.47634 C 171.63905,949.53994 175.07917,954.35967 176.94411,957.18676 C 181.08262,963.46029 189.93155,968.17133 192.58775,965.5151 z M 417.96002,955.23873 C 426.18738,948.64644 427.23718,947.52052 442.55815,928.85487 C 448.18808,921.9959 457.44621,911.03976 463.13191,904.50764 C 471.05376,895.40657 475.02252,889.44958 480.11607,879.01537 C 483.77154,871.5266 487.58807,862.18007 488.59699,858.24534 C 491.03806,848.72477 493.96719,844.92687 503.52407,838.89124 C 507.92727,836.11034 511.77027,833.83507 512.06399,833.83507 C 512.71762,833.83507 528.69047,824.32421 562.96001,803.52944 C 577.25681,794.85416 592.77603,785.4518 597.44727,782.63534 C 602.11845,779.81883 609.464,774.29429 613.77052,770.3586 C 620.92024,763.82462 621.5085,762.91025 620.5387,759.83722 C 619.95472,757.98606 618.01866,751.17989 616.23637,744.71236 C 612.28554,730.37616 592.9464,681.47055 575.36438,641.35467 C 573.03774,636.04594 556.4029,596.38707 554.33688,591.22314 C 549.83483,579.97068 545.37212,568.06178 539.39237,551.34367 C 535.80853,541.32397 531.70761,531.64032 530.27921,529.82443 C 528.85085,528.00855 527.68222,525.82738 527.68222,524.97741 C 527.68222,523.31868 522.97029,521.61147 521.27826,522.65709 C 519.46661,523.77678 520.16252,525.31379 524.84121,530.52554 C 528.31339,534.39338 530.68062,539.30267 534.58854,550.74096 C 541.92556,572.2157 547.86044,587.79109 557.08837,609.79038 C 561.51484,620.3428 566.68424,632.87565 568.57588,637.64122 C 570.46741,642.40684 575.16918,653.54718 579.02414,662.39758 C 588.5669,684.30671 610.80395,743.67458 610.12768,745.43695 C 608.36171,750.03898 588.6938,771.05626 577.99377,779.77547 C 561.74876,793.01321 555.12515,797.11176 519.23787,816.13225 C 515.12972,818.30964 510.47497,821.09149 508.89437,822.31397 C 503.1787,826.73457 489.30996,841.39005 489.30996,843.00926 C 489.30996,846.28156 483.23018,858.2599 473.25006,874.6502 C 464.27824,889.38478 459.65656,895.9907 444.21654,916.1499 C 435.91263,926.9917 421.40939,943.89714 414.94773,950.2664 C 410.98117,954.17637 407.51113,961.33019 409.58109,961.33019 C 410.0082,961.33019 413.77866,958.589 417.96002,955.23873 z M 631.60622,747.55834 C 640.31611,739.56548 640.40232,738.99821 634.78007,726.70663 C 633.06337,722.95338 631.65878,719.59218 631.65878,719.23733 C 631.65878,717.74057 621.23749,694.35244 612.08136,675.3004 C 606.65804,664.01538 600.8223,651.76105 599.11334,648.06843 C 580.56765,607.99748 554.05954,553.87895 542.92462,533.35521 C 538.34043,524.90572 536.86742,523.14324 534.38994,523.14324 C 530.61491,523.14324 530.49456,525.95609 534.18509,527.93127 C 535.94136,528.87116 537.72631,531.8139 539.00428,535.87677 C 547.86732,564.05118 567.05314,614.00443 580.94215,645.06817 C 585.88914,656.13259 601.95119,693.99285 601.95119,694.58931 C 601.95119,694.94166 605.87102,705.09447 610.66182,717.15111 C 615.45272,729.20776 620.03584,742.56941 620.84663,746.84357 C 621.65731,751.1178 622.6799,754.61493 623.11885,754.61493 C 623.55764,754.61493 627.37705,751.43945 631.60622,747.55834 z M 291.25941,747.73379 C 291.25941,747.43364 290.70231,747.18797 290.02158,747.18797 C 289.34074,747.18797 288.78375,747.77788 288.78375,748.49891 C 288.78375,749.21978 289.34074,749.46545 290.02158,749.04467 C 290.70231,748.62389 291.25941,748.03404 291.25941,747.73379 z M 654.75585,670.90989 C 657.35548,665.72005 660.18487,661.20434 661.0433,660.87495 C 663.29238,660.01183 662.98021,658.57451 659.81912,655.23922 C 658.2873,653.62305 652.57784,646.56957 647.13149,639.56486 C 641.68508,632.5601 636.35632,625.91961 635.28981,624.80822 C 633.48347,622.9259 627.3793,614.99349 598.49143,576.98826 C 572.9831,543.4291 565.99008,534.8421 552.19438,520.13823 C 546.69113,514.27263 544.81411,512.94929 543.64797,514.11277 C 542.4812,515.27678 542.94184,516.3624 545.74881,519.06403 C 550.06825,523.22148 556.04269,531.71348 566.90677,549.13738 C 571.36377,556.2858 576.25071,564.08403 577.76639,566.46679 C 579.28206,568.84965 586.29643,580.26846 593.35375,591.84205 C 600.41107,603.41565 607.95944,615.39152 610.12768,618.45512 C 612.29609,621.51871 615.72098,626.81033 617.73844,630.21437 C 619.75602,633.61836 625.94147,643.54961 631.48407,652.28384 C 637.02644,661.01806 641.56134,668.32843 641.56134,668.529 C 641.56134,669.85479 648.16148,680.3459 648.99558,680.3459 C 649.56409,680.3459 652.15615,676.09968 654.75585,670.90989 z M 513.3726,555.01704 C 515.68846,540.82473 517.56876,508.21481 516.92438,493.42136 C 516.3106,479.33443 516.49327,476.44973 518.08161,475.13147 C 519.76669,473.73299 519.73881,472.82724 517.81991,466.62523 C 516.56141,462.55792 514.4429,458.75523 512.70305,457.44061 C 510.32634,455.64473 510.04268,454.88732 511.28119,453.64481 C 513.35985,451.55951 513.23295,450.11208 510.97173,450.11208 C 509.95055,450.11208 509.11503,450.64951 509.11503,451.30639 C 509.11503,451.96322 507.98626,453.10471 506.60668,453.84303 C 504.60468,454.91451 503.35562,454.65649 500.41762,452.56449 C 498.39315,451.12297 496.7368,449.21368 496.7368,448.32168 C 496.7368,446.5413 487.51383,443.73992 484.92419,444.73369 C 484.03358,445.07539 482.33708,443.87758 481.15396,442.0719 C 479.6945,439.84451 478.24746,438.98635 476.65382,439.40314 C 475.26961,439.76508 474.01596,439.26495 473.6018,438.18564 C 473.21506,437.17817 472.17593,436.63124 471.29254,436.97027 C 468.93942,437.87322 463.53293,434.98463 462.87625,432.47363 C 462.25275,430.08932 458.97927,429.54882 457.69984,431.61894 C 457.1871,432.4485 456.25862,432.10716 455.17471,430.69059 C 453.74089,428.81712 453.27219,428.73651 452.31124,430.19835 C 451.33313,431.68637 450.87267,431.65673 449.21496,429.99908 C 447.23317,428.01716 443.08393,428.30794 440.10676,430.6374 C 438.95066,431.54192 438.55946,430.9889 438.55946,428.45033 C 438.55946,425.57054 438.27636,425.2875 436.70277,426.59359 C 435.14599,427.88558 434.84601,427.68508 434.84601,425.35261 C 434.84601,422.97801 434.3475,422.67037 431.44208,423.25133 C 428.41444,423.85666 427.80856,423.39464 425.96366,419.07367 C 423.65221,413.65963 421.86602,412.88716 420.82904,416.85303 C 420.19126,419.2916 419.98692,419.33827 418.12056,417.47194 C 417.0103,416.36166 415.58477,415.45324 414.95248,415.45324 C 414.32035,415.45324 413.80321,414.06072 413.80321,412.35871 C 413.80321,409.02849 411.5569,408.30152 409.0223,410.81144 C 407.77091,412.05064 407.22222,411.93762 406.26635,410.24395 C 405.6099,409.08083 404.30997,408.42196 403.37741,408.77983 C 402.4448,409.13769 400.92777,408.40968 400.00611,407.16209 C 397.99654,404.44162 392.89189,402.13998 390.19668,402.73905 C 388.80372,403.04867 388.40451,404.21144 388.78989,406.83665 C 389.08569,408.85259 388.98481,410.50198 388.56573,410.50198 C 388.14648,410.50198 385.90474,408.48893 383.58408,406.02851 C 380.66759,402.93643 378.85266,401.88531 377.70707,402.62451 C 376.79551,403.21272 374.73921,403.69399 373.13733,403.69399 C 370.68029,403.69399 369.76422,404.95196 367.27822,411.7398 C 363.77138,421.31503 363.9042,420.40454 366.01481,420.40454 C 366.96311,420.40454 368.0561,421.23065 368.44346,422.24035 C 368.83093,423.2501 369.96106,423.76423 370.95497,423.3829 C 371.94861,423.00152 373.95495,423.32808 375.41317,424.10857 C 377.39705,425.17024 378.49245,425.17261 379.76314,424.11798 C 381.86308,422.37521 386.57124,424.52519 386.57124,427.22687 C 386.57124,428.63419 388.07382,428.90023 393.68868,428.48694 C 400.33211,427.99789 400.64122,428.09207 398.3305,429.90091 C 395.94357,431.76935 395.97676,431.8105 399.25882,431.04932 C 402.82753,430.22169 403.64131,431.30902 401.24586,433.70442 C 400.18201,434.76833 400.63117,435.32261 403.0495,435.92958 C 404.8209,436.37409 406.99021,436.48022 407.87049,436.16531 C 408.75066,435.85045 410.49186,436.11899 411.74002,436.76203 C 413.37724,437.60569 414.64166,437.35883 416.28097,435.87519 C 418.40846,433.94984 418.72085,433.98693 421.19274,436.45872 C 422.72778,437.99386 424.72108,438.81629 425.95638,438.42419 C 427.20144,438.02906 429.36641,438.94217 431.18681,440.63021 C 432.89522,442.21433 435.11364,443.5513 436.11681,443.6013 C 441.19296,443.85425 445.67661,444.88532 448.46202,446.44016 C 450.16405,447.39026 452.01911,448.18739 452.58473,448.21151 C 453.15014,448.23563 454.26412,449.13552 455.06035,450.2113 C 457.09102,452.9554 469.09838,458.77682 472.72767,458.77682 C 474.7409,458.77682 476.21317,459.8001 477.14618,461.84758 C 478.58447,465.00437 482.19286,466.92328 484.27315,465.63763 C 484.91911,465.2384 486.99026,466.84495 488.87563,469.20781 C 491.15361,472.06283 492.76475,473.12104 493.67856,472.36262 C 494.5838,471.61139 496.61018,472.68961 499.6087,475.51783 C 502.114,477.88087 504.1637,480.02905 504.1637,480.2915 C 504.1637,482.06373 498.73626,481.65815 496.24682,479.69995 C 494.59955,478.4042 492.83531,477.34406 492.32597,477.34406 C 491.8169,477.34406 489.67671,476.09007 487.57006,474.55744 C 485.43958,473.0075 481.98749,471.79047 479.79142,471.81508 C 477.13777,471.84486 475.66798,471.18965 475.30907,469.81687 C 475.0153,468.69355 472.19664,466.48678 469.04533,464.91294 C 465.89406,463.33914 463.31576,461.59314 463.31576,461.03307 C 463.31576,460.47291 462.44304,460.01465 461.37637,460.01465 C 460.3098,460.01465 457.57486,458.59424 455.29874,456.85812 C 452.71429,454.88684 450.85872,454.18964 450.35699,455.00138 C 448.49832,458.00886 438.55946,454.41295 438.55946,450.733 C 438.55946,449.28812 435.0442,447.48821 431.52929,447.13337 C 430.7264,447.05232 429.65882,446.57532 429.15687,446.07345 C 428.65503,445.57153 427.26947,445.16082 426.07815,445.16082 C 424.88665,445.16082 423.69381,444.50622 423.42709,443.70616 C 423.16031,442.90611 420.74656,442.20313 418.06321,442.14402 C 415.37981,442.08486 412.47404,441.5839 411.60607,441.03084 C 410.73809,440.47778 406.83898,439.78089 402.94133,439.48218 C 394.75366,438.85473 390.24229,437.3502 383.88777,433.12793 C 380.26239,430.71914 378.85069,430.37708 376.88222,431.43057 C 373.84262,433.05726 366.24778,430.25387 365.01903,427.05164 C 363.57939,423.30019 362.11366,426.78883 357.41099,445.16082 C 350.70722,471.3499 350.77479,469.60981 356.42543,470.553 C 401.02136,477.99682 429.8827,484.82807 438.79006,490.04813 C 447.65535,495.24346 458.54179,503.84844 466.04089,511.58776 C 484.49738,530.63539 491.5333,538.21109 500.05318,548.209 C 505.12955,554.16606 510.05544,559.03995 510.99956,559.03995 C 511.97649,559.03995 512.99907,557.30625 513.3726,555.01704 z M 530.01654,506.11305 C 528.00817,498.80011 526.02778,491.25015 525.61559,489.33539 C 524.22879,482.89308 522.94708,487.76913 522.07059,502.82192 L 521.19968,517.77835 L 526.60708,518.99901 C 529.58114,519.67038 532.38654,520.03735 532.84135,519.81448 C 533.29611,519.59161 532.02486,513.42595 530.01654,506.11305 z M 544.7177,505.5211 C 548.11993,498.53371 554.13739,486.13254 558.0899,477.96297 C 562.04253,469.79335 566.82322,461.65185 568.71379,459.87065 L 572.15108,456.63215 L 569.84956,450.58702 C 567.29147,443.86799 554.97493,416.90321 545.27864,396.79373 C 532.85163,371.02069 521.93279,347.8308 517.72563,338.2749 C 513.92909,329.65183 512.61093,327.95983 506.02039,323.25007 C 494.02375,314.67696 479.09314,306.09362 447.50424,289.6103 C 433.78413,282.45091 432.45089,282.29865 423.35811,286.85233 C 420.78404,288.14136 417.02419,289.19602 415.00289,289.19602 C 410.52358,289.19602 410.34995,290.80661 414.39311,294.8498 C 416.07928,296.53589 418.04836,299.01717 418.76901,300.3637 C 419.48965,301.71027 421.05065,302.812 422.23763,302.812 C 424.81694,302.812 441.00154,296.12255 442.1131,294.59708 C 443.58063,292.58307 446.66325,293.27872 448.79508,296.10496 C 450.76332,298.71429 450.77263,299.08665 448.91616,300.94312 C 447.81003,302.04929 446.19297,302.68116 445.32279,302.34724 C 443.74416,301.7415 431.6383,304.18839 424.01513,306.65407 C 421.02802,307.6202 419.99227,308.68433 419.99227,310.78685 C 419.99227,312.34426 418.9414,314.95427 417.65728,316.5869 C 412.36814,323.3109 407.43136,333.24136 404.02777,344.00333 C 399.16551,359.3773 398.58966,362.22715 400.34554,362.22715 C 402.90865,362.22715 411.95656,353.96879 414.43461,349.36763 C 416.91327,344.7648 418.45932,344.09269 422.17508,346.00235 C 423.35737,346.60991 425.85641,347.71199 427.72857,348.45147 C 429.72775,349.24109 431.13256,350.73926 431.13256,352.08174 C 431.13256,355.58601 440.29592,366.55973 454.61507,380.20372 C 468.41297,393.35102 488.37329,412.4081 505.07271,428.37812 C 513.06021,436.0167 515.43281,439.08745 516.0393,442.57159 C 516.80635,446.97749 520.29992,459.4697 530.05622,492.69416 C 532.83542,502.15787 535.10912,511.16383 535.10912,512.70742 C 535.10912,516.42826 536.36999,519.56166 537.56915,518.82054 C 538.09871,518.49324 541.31551,512.5085 544.7177,505.5211 z M 510.66425,446.91234 C 512.88888,444.68784 506.6944,437.02632 487.07471,417.73527 C 475.02852,405.89089 459.88089,391.55306 453.41331,385.87342 C 446.94567,380.19379 437.06144,370.87883 431.44851,365.17354 C 425.83536,359.46823 420.78014,354.80028 420.2144,354.80028 C 419.64878,354.80028 417.83566,356.27128 416.18506,358.06922 C 414.53452,359.86712 405.79861,364.9433 396.77163,369.34954 C 383.01326,376.06537 380.23506,377.88878 379.59267,380.62495 C 379.17121,382.42014 377.71323,385.74004 376.35267,388.00244 C 374.64065,390.84943 374.27542,392.51221 375.16592,393.40289 C 376.90536,395.14227 379.14428,393.57832 379.14428,390.62387 C 379.14428,387.18641 384.88135,387.32287 385.98066,390.78646 C 386.49757,392.41487 387.47314,393.09133 388.65204,392.6389 C 389.67356,392.24692 392.07929,393.04408 393.99819,394.41039 C 395.91687,395.77668 398.2837,396.58879 399.25758,396.21504 C 400.23151,395.84131 401.74273,396.39641 402.61596,397.44859 C 403.48935,398.50077 405.02609,399.36165 406.03113,399.36165 C 407.03627,399.36165 409.41959,401.03269 411.32754,403.07511 C 415.07983,407.09203 417.5166,407.8476 417.5166,404.99424 C 417.5166,402.26135 427.44971,407.94575 428.77758,411.4386 C 429.36212,412.97583 430.27035,414.14106 430.79589,414.028 C 431.3215,413.91491 432.80009,414.27727 434.08156,414.83319 C 435.44523,415.42468 437.30734,415.2847 438.57069,414.49564 C 440.3461,413.38684 441.39788,413.90199 444.49021,417.39483 C 448.03064,421.3938 452.17548,423.05696 452.17548,420.47867 C 452.17548,419.83865 453.42877,419.42632 454.96055,419.56237 C 458.10718,419.84185 465.79144,424.14144 465.79144,425.62268 C 465.79144,426.15669 467.07296,426.59359 468.63916,426.59359 C 472.37209,426.59359 478.14766,429.31348 478.15996,431.07721 C 478.16526,431.84119 480.45651,432.83198 483.25158,433.2789 C 486.42136,433.78577 489.66079,435.41867 491.86065,437.61869 C 493.80061,439.55868 495.69225,440.84151 496.06419,440.46955 C 496.95763,439.5761 502.96515,442.65132 505.75919,445.43237 C 508.06484,447.72732 509.43573,448.14093 510.66425,446.91234 z M 443.77882,422.65326 C 441.88809,420.76244 440.49293,422.1576 441.54166,424.89049 C 442.16074,426.50409 442.69758,426.66395 443.7988,425.56278 C 444.90009,424.46157 444.89524,423.76962 443.77882,422.65326 z M 371.75403,386.86924 C 375.31619,375.77522 376.17271,374.21793 379.31454,373.12268 C 381.26336,372.44334 382.85779,371.37196 382.85779,370.74183 C 382.85779,369.30802 370.72088,351.59024 368.44476,349.70116 C 367.05044,348.54406 366.76063,350.48292 366.73348,361.14724 C 366.71541,368.2088 366.49323,379.97245 366.23959,387.28871 C 365.98597,394.60496 366.21911,400.31867 366.75758,399.98581 C 367.29617,399.65297 369.54457,393.75051 371.75403,386.86924 z M 227.13603,332.21013 C 222.5598,325.50292 216.79569,312.60676 216.55612,308.53961 C 216.3835,305.60911 215.51863,305.20182 203.25143,302.27396 C 185.87347,298.12623 174.07402,296.5327 162.32114,296.7463 L 152.64612,296.9221 L 153.29016,303.27106 C 153.64432,306.76298 154.30236,312.12654 154.75249,315.19017 C 155.20262,318.25376 155.41696,322.84913 155.22882,325.40215 C 154.83897,330.69217 154.65512,330.63221 163.76433,328.18722 C 176.45784,324.7801 188.25115,325.7415 208.32566,331.81985 C 231.61257,338.87088 231.68144,338.87232 227.13603,332.21013 z M 403.50736,334.23454 C 404.41236,331.8761 398.86491,320.28644 393.59011,313.51547 C 389.66537,308.47746 374.77896,298.0769 356.24474,287.42374 C 336.71869,276.20052 333.69247,275.04384 324.06148,275.12264 C 303.42077,275.29154 256.79451,286.59766 249.57744,293.18385 C 247.29668,295.26518 246.25919,295.44398 242.76946,294.35722 C 240.50496,293.65205 236.42409,292.77153 233.70094,292.40048 C 230.97773,292.02943 222.34399,290.57502 214.51478,289.16844 C 170.16232,281.2001 172.77714,281.49226 165.29114,283.66846 C 158.66262,285.59545 158.31014,285.57634 154.97299,283.10908 C 150.79309,280.01873 149.8309,281.13427 151.49076,287.14601 L 152.74034,291.67165 L 163.51302,291.77479 C 177.29387,291.90671 181.2351,292.32772 197.80424,295.43801 C 210.76842,297.87158 223.12131,301.74089 226.67778,304.48204 C 227.75828,305.31491 228.60447,305.32759 229.15344,304.51919 C 230.64688,302.32001 282.38993,285.23656 292.49719,283.60566 C 294.19921,283.33103 301.43927,281.96994 308.58633,280.58101 C 324.56885,277.47502 325.79059,277.46824 332.38362,280.44923 C 335.29513,281.76568 340.29124,284.02794 343.48591,285.47646 C 351.36435,289.04873 366.53398,298.25081 378.52548,306.73194 C 387.58497,313.13951 388.95473,314.68973 394.61699,324.94457 C 398.02105,331.10945 401.24128,336.17136 401.77322,336.19325 C 402.30526,336.21513 403.08556,335.33371 403.50736,334.23454 z M 408.05198,324.16433 C 409.00869,322.29213 410.1588,319.05302 410.60764,316.96633 C 411.6996,311.88917 408.07145,307.77451 373.3454,274.70794 C 371.76915,273.20708 370.47955,271.40232 370.47955,270.69737 C 370.47955,268.62954 354.60374,261.7896 324.06492,250.70017 C 318.62054,248.72316 313.32887,246.06658 312.30572,244.79665 C 309.39323,241.1817 305.73641,240.9483 291.47285,243.46698 C 278.18493,245.81341 264.41605,250.22537 251.67924,256.21801 C 245.67544,259.0428 244.60126,259.21039 242.27382,257.6854 C 234.42931,252.54541 218.04601,244.2277 211.59575,242.11019 C 202.93277,239.26629 201.60444,239.21477 187.01856,241.15674 C 176.10814,242.60937 175.92123,242.69207 173.74204,247.03637 C 171.29713,251.91001 169.34555,263.92599 170.85135,264.83442 C 171.37865,265.15257 177.82173,266.05547 185.1692,266.84089 C 198.62722,268.27945 224.66539,274.09893 232.74072,277.47299 C 239.69948,280.38059 240.23265,280.04605 239.20843,273.41387 C 238.70912,270.18007 238.48185,267.33921 238.70348,267.10082 C 239.6717,266.0592 241.48697,268.37772 242.17221,271.53138 C 243.70986,278.60863 243.73289,278.61043 262.6951,273.13167 C 272.37904,270.33372 281.3149,268.36589 282.55257,268.75872 C 283.79024,269.15154 285.11952,270.68347 285.50637,272.16298 C 286.4147,275.636 285.85682,276.09226 282.93417,274.26704 C 281.04649,273.08818 278.53672,273.22387 270.74493,274.92598 C 265.34832,276.10488 257.62494,277.73127 253.58188,278.54015 C 247.2465,279.80767 246.11033,280.46093 245.35955,283.26865 C 243.73272,289.35165 242.62551,289.93089 241.12773,285.48246 L 239.71512,281.28674 L 219.37856,277.36554 C 208.19351,275.20888 193.1934,272.88742 186.04502,272.20676 C 178.8966,271.52609 172.18447,270.5972 171.12925,270.14257 C 169.31145,269.35953 160.2002,275.07163 160.09594,277.05954 C 160.07121,277.53287 163.81074,277.88515 168.4061,277.84239 C 173.00153,277.79962 181.21748,278.62389 186.664,279.67407 C 192.11035,280.72427 197.95902,281.84874 199.66104,282.17294 C 201.36295,282.49711 212.20575,284.74446 223.75604,287.16705 C 241.70255,290.93111 245.03293,291.32406 246.65564,289.86879 C 249.99861,286.87095 256.78942,284.67399 286.92699,276.84004 C 292.3734,275.42431 304.16952,273.17954 313.14061,271.85166 C 327.58271,269.714 330.01847,269.63725 334.39634,271.18187 C 340.08034,273.1873 353.7939,281.09016 369.86075,291.61934 C 375.98788,295.63471 383.6657,300.45153 386.92252,302.32337 C 393.03335,305.83547 399.99125,315.14107 402.74461,323.48417 C 404.38701,328.46024 405.76649,328.63704 408.05198,324.16433 z M 400.10822,268.9303 C 399.05001,261.13215 397.88945,258.71359 390.82548,249.58591 C 379.65245,235.14884 373.90392,230.92015 350.05561,219.59569 C 337.80129,213.77663 322.9458,206.72023 317.04356,203.91479 C 311.14138,201.10937 306.07816,198.12255 305.7919,197.27745 C 305.42621,196.19705 300.52777,197.60665 289.29134,202.02573 C 269.05194,209.98558 265.27363,211.21361 261.02199,211.21361 C 258.24251,211.21361 257.7366,211.6339 258.41434,213.37979 C 258.87672,214.57117 259.57562,219.32381 259.96739,223.94118 C 260.35916,228.55858 261.09509,232.59316 261.6028,232.90695 C 262.11057,233.22075 264.67408,232.72196 267.29962,231.79857 C 269.92499,230.87518 277.36487,229.15043 283.83246,227.96581 C 290.3001,226.78121 299.69333,224.73975 304.70654,223.42925 C 310.49005,221.91734 314.33549,221.46848 315.22796,222.20105 C 316.00155,222.83606 330.83852,230.49151 348.19892,239.21319 C 379.55625,254.96684 379.82812,255.13743 389.66571,265.23701 C 395.11212,270.82843 399.8927,275.44302 400.28948,275.49163 C 400.68605,275.54026 400.60453,272.58766 400.10822,268.9303 z M 253.44403,235.95098 C 259.14587,235.90839 259.34909,234.67495 255.9048,221.01783 C 254.11561,213.92353 252.53293,207.99375 252.38774,207.84058 C 252.24255,207.68742 249.97224,207.22018 247.34275,206.80227 C 244.71325,206.38438 235.36989,204.21772 226.57977,201.98746 C 212.23764,198.34856 210.51276,198.13993 209.77112,199.95436 C 209.31647,201.0664 206.64108,205.02944 203.82564,208.7611 C 201.01025,212.49277 198.35084,216.72361 197.91589,218.16297 C 197.15116,220.69381 197.48281,220.77632 207.98611,220.66901 C 218.50765,220.56152 219.21548,220.73875 230.63661,226.33968 C 237.12079,229.51958 243.7697,233.55164 245.41205,235.29983 C 247.42878,237.44654 248.80525,238.07121 249.65234,237.22413 C 250.3421,236.53432 252.04848,235.9614 253.44403,235.95098 z M 396.47369,143.84862 C 396.47369,141.54565 395.51314,140.53305 392.33263,139.48339 C 388.5812,138.24531 383.97759,133.9437 363.52498,112.5656 C 360.72116,109.63491 357.37904,107.25368 356.09802,107.27399 C 354.3291,107.30205 355.03845,108.41809 359.04883,111.91581 C 365.63445,117.65937 366.21719,121.00793 359.95818,117.13958 C 357.57538,115.66694 355.62582,115.02657 355.62582,115.71653 C 355.62582,117.39749 361.17654,121.20124 368.00394,124.19881 C 373.62918,126.66862 389.04685,140.48776 389.04685,143.06007 C 389.04685,144.29033 393.01477,146.55485 395.54537,146.7687 C 396.05597,146.81187 396.47369,145.49783 396.47369,143.84862 z M 333.34507,144.3409 C 333.34507,143.64326 331.98164,142.55408 330.31534,141.92051 C 328.64888,141.28697 326.35673,139.35117 325.22175,137.6188 C 323.39255,134.82731 319.72917,133.22644 319.72917,135.21868 C 319.72917,136.95026 326.44394,143.81603 328.86271,144.55761 C 332.77831,145.75806 333.34507,145.73065 333.34507,144.3409 z M 266.56323,139.72973 C 265.86765,138.53833 263.85251,135.8925 262.08533,133.85009 C 258.96061,130.23898 258.8949,130.22192 259.69959,133.23118 C 260.15481,134.93319 262.01099,137.57624 263.82456,139.10466 C 267.8018,142.45661 268.20965,142.54968 266.56323,139.72973 z M 274.51319,135.85066 C 270.32568,133.91138 266.07217,130.90137 264.82124,128.99208 C 261.89995,124.53375 260.81086,125.73231 263.33971,130.62248 C 265.63474,135.06072 272.93785,139.31176 278.26232,139.30876 C 281.49476,139.30694 281.00918,138.85902 274.51319,135.85066 z M 250.81414,125.8255 C 251.00737,117.9012 250.87144,117.3285 249.53894,120.45175 C 247.87338,124.35548 247.59079,128.72271 248.72882,132.97083 C 249.94543,137.51245 250.58253,135.32944 250.81414,125.8255 z M 247.15093,117.24273 C 245.94753,115.87253 245.14515,118.98873 244.72516,126.66333 L 244.2642,135.08792 L 245.93404,126.4232 C 246.85242,121.65761 247.40004,117.52641 247.15093,117.24273 z M 340.15311,131.99338 C 339.73227,131.31258 339.14236,130.75556 338.84222,130.75556 C 338.54203,130.75556 338.29635,131.31258 338.29635,131.99338 C 338.29635,132.67417 338.8862,133.23118 339.60729,133.23118 C 340.3281,133.23118 340.57377,132.67417 340.15311,131.99338 z M 373.38712,110.45473 L 372.57808,100.8847 L 365.03033,97.278835 C 358.77782,94.291814 357.41155,93.998471 357.06958,95.569493 C 356.80065,96.804966 356.15351,97.078616 355.21288,96.3546 C 354.41886,95.743332 352.85734,94.919898 351.74291,94.524745 C 350.15525,93.961734 349.86882,94.388816 350.4196,96.49878 C 351.25653,99.706455 351.90237,100.36169 360.08333,106.30428 C 363.55624,108.82692 367.91486,113.1835 369.76924,115.98554 C 371.62351,118.78761 373.37803,120.84272 373.66835,120.55248 C 373.95862,120.26225 373.83195,115.71826 373.38712,110.45473 z M 278.36528,116.93456 C 282.39338,116.141 287.63871,114.19126 290.02158,112.6018 C 296.13049,108.52682 309.87142,94.695167 309.08124,93.416471 C 308.71911,92.830549 305.08729,95.686728 301.01041,99.763555 C 283.821,116.95304 260.74228,119.99275 253.51623,106.01908 C 250.79873,100.76424 249.81712,88.009082 251.51903,80.072724 C 252.29973,76.432856 252.66389,73.180289 252.32847,72.844819 C 250.86274,71.379136 248.8402,80.290065 248.24476,90.835993 C 247.51311,103.7966 246.31542,104.92876 239.44862,99.150757 C 229.86877,91.089861 231.96657,76.013722 244.65291,61.747314 C 246.01494,60.215515 246.55047,58.962234 245.84282,58.962234 C 243.02969,58.962234 238.36986,64.04783 234.88995,70.91571 C 231.77238,77.068391 231.2474,79.469665 231.3743,86.99694 C 231.51289,95.22218 231.3126,95.941552 228.53091,97.208936 C 226.88517,97.958811 224.03298,98.580869 222.19282,98.591303 C 220.35272,98.601737 218.01157,99.150209 216.99045,99.81016 C 213.17025,102.27888 224.99094,101.06628 229.08638,98.569322 L 233.13649,96.099923 L 234.46747,99.021019 C 236.0706,102.53965 242.99209,106.0892 246.47432,105.17855 C 248.36771,104.68344 249.47255,105.46263 250.96221,108.34337 C 253.99809,114.21398 256.97074,115.73403 270.31947,118.24179 C 270.71659,118.31637 274.33718,117.72813 278.36528,116.93456 z M 344.48547,104.57502 C 337.18892,98.015033 330.86951,94.036746 330.86951,96.003417 C 330.86951,96.667872 331.63887,97.656955 332.57944,98.201384 C 333.51995,98.745813 336.44423,100.94965 339.07796,103.09878 C 349.02495,111.21559 350.07137,111.95888 350.67453,111.33553 C 351.01499,110.98369 348.22985,107.94147 344.48547,104.57502 z M 313.54005,88.985592 C 313.54005,88.645191 312.70453,89.060116 311.68336,89.907627 C 310.66212,90.755156 309.8266,91.727083 309.8266,92.067484 C 309.8266,92.407885 310.66212,91.992968 311.68336,91.145448 C 312.70453,90.297929 313.54005,89.326001 313.54005,88.985592 z M 391.27488,74.806281 C 395.47644,70.604777 390.53544,63.605071 385.33346,66.389125 C 382.58841,67.85819 382.20326,70.280088 384.13898,73.897401 C 385.5832,76.595792 389.04448,77.036646 391.27488,74.806281 z M 330.86951,64.349538 C 330.86951,60.809497 325.84236,54.077737 320.40521,50.336884 C 309.88,43.09531 290.02158,38.569682 290.02158,43.4126 C 290.02158,44.391492 290.9963,45.128794 292.18768,45.051052 C 296.71446,44.755674 303.42788,46.728014 304.13086,48.559808 C 304.61125,49.81188 305.70841,50.199921 307.32101,49.688107 C 310.56513,48.658479 320.30711,55.333487 322.91182,60.37066 C 324.25657,62.971031 324.62022,65.732791 324.08575,69.286466 L 323.31148,74.434935 L 327.09047,70.392497 C 329.16885,68.169166 330.86951,65.449821 330.86951,64.349538 z M 377.22572,69.024572 C 376.57897,68.431677 374.37873,67.591618 372.33636,67.157781 L 368.62286,66.368996 L 371.71745,68.191921 C 375.10619,70.188225 379.1641,70.80164 377.22572,69.024572 z M 381.61995,67.796872 C 381.61995,65.924603 365.54137,58.692141 363.29957,59.55599 C 361.35419,60.305534 361.36509,60.461462 363.44323,61.627992 C 364.6792,62.321793 369.13537,64.18162 373.3458,65.760937 C 377.55612,67.340254 381.1403,68.684693 381.3105,68.748593 C 381.48069,68.812484 381.61995,68.384211 381.61995,67.796872 z M 364.29049,63.913492 C 364.29049,63.232699 363.31577,62.684209 362.12433,62.694626 C 360.273,62.710833 360.22813,62.888064 361.81488,63.913492 C 364.15089,65.423145 364.29049,65.423145 364.29049,63.913492 z M 269.74537,54.733114 C 274.06509,51.045493 279.51324,47.396747 281.85237,46.624778 C 285.73161,45.344508 291.02046,39.743507 289.64704,38.37007 C 289.33221,38.055294 285.07318,37.49051 280.1824,37.11499 C 270.54674,36.375132 255.43513,38.60074 254.73081,40.86345 C 254.4931,41.627002 254.0538,45.31531 253.75467,49.059701 C 253.23641,55.545836 253.39322,55.993837 257.07179,58.535935 C 259.19538,60.00347 261.14849,61.25675 261.41206,61.321024 C 261.67568,61.38528 265.42565,58.420726 269.74537,54.733114 z M 319.43145,662.18007 C 305.21182,646.5711 302.53264,643.4248 299.06289,638.26013 C 294.84021,631.97449 290.9092,624.64418 291.76114,624.64418 C 292.07207,624.64418 295.37473,628.96107 299.10014,634.23723 C 306.59766,644.8553 310.12161,648.3036 317.29803,652.0442 C 320.83547,653.88803 323.22201,654.32963 326.19162,653.69 C 334.28931,651.94587 338.88484,648.83863 359.94842,630.86552 C 366.75087,625.061 372.87812,619.9201 373.56438,619.4413 C 374.25047,618.96254 377.88144,615.89889 381.63317,612.63332 C 385.38478,609.36774 393.33615,603.11721 399.30268,598.74324 C 406.75966,593.27679 410.371,589.79411 410.85432,587.60289 C 411.24117,585.84961 411.86669,583.30112 412.24468,581.93949 C 412.93157,579.46388 412.93157,579.46388 413.89924,581.93949 C 414.4315,583.30112 414.90601,586.45425 414.95394,588.94651 C 415.03416,593.12386 414.60492,593.68905 409.46035,596.17944 C 406.39088,597.66532 399.01044,602.52674 393.05926,606.9825 C 382.05569,615.22126 377.52293,619.38225 345.72331,650.43566 C 335.85173,660.07556 327.08386,667.96394 326.23949,667.96529 C 325.39488,667.96665 322.33128,665.36329 319.43145,662.18007 z M 303.22026,632.38047 C 301.61206,629.82752 299.29067,625.78915 298.06169,623.40634 C 296.83261,621.02353 294.88802,617.68141 293.74033,615.97944 C 287.6049,606.88084 284.07745,599.88257 285.25884,599.15244 C 287.36036,597.85353 289.76213,601.21507 296.01233,614.20353 C 299.26707,620.96708 303.14767,628.45043 304.6358,630.83324 C 307.28782,635.07952 307.95088,637.0223 306.74754,637.0223 C 306.41567,637.0223 304.82847,634.93353 303.22026,632.38047 z M 391.52252,597.57918 C 391.52252,596.99018 392.56289,595.17988 393.83432,593.55627 C 395.10597,591.93266 399.65453,584.75555 403.94247,577.60712 C 408.23036,570.45876 412.96222,562.66053 414.45758,560.27772 C 416.12969,557.61351 417.97289,551.17923 419.24487,543.56724 C 422.87015,521.87109 425.05567,513.24073 426.92439,513.24073 C 427.87726,513.24073 428.65695,514.45019 428.65695,515.92835 C 428.65695,517.40651 429.4621,519.50579 430.44635,520.59329 C 431.84389,522.13741 431.97835,523.71683 431.06047,527.802 C 430.41401,530.67926 429.79486,538.63052 429.68473,545.47146 C 429.57454,552.3124 429.11204,558.13968 428.65706,558.42091 C 428.2019,558.70215 425.97388,559.25925 423.70573,559.65887 C 421.43739,560.05842 419.09579,560.68557 418.50222,561.05255 C 417.36103,561.75779 397.85045,591.11662 395.36738,595.86496 C 393.93542,598.60307 391.52252,599.6789 391.52252,597.57918 z M 423.13027,557.04083 C 425.80352,555.28924 426.19245,554.10164 426.27166,547.44777 C 426.32133,543.27109 426.81024,536.79019 427.35804,533.0458 C 428.29415,526.6472 427.39749,521.41183 425.8064,523.98626 C 425.41181,524.62477 423.93045,531.24127 422.51463,538.68956 C 418.10989,561.86278 418.0596,560.36325 423.13027,557.04083 z M 389.04685,592.59583 C 389.04685,591.98928 394.27931,582.65922 400.67475,571.86244 C 412.72326,551.52199 413.75054,548.67155 416.89458,526.85669 C 417.33608,523.79315 417.97272,520.31175 418.30933,519.12034 C 418.64588,517.92897 418.43295,516.95416 417.83622,516.95416 C 417.23949,516.95416 415.71794,522.10659 414.45504,528.40398 C 413.19203,534.70137 411.18247,542.73053 409.98951,546.24658 C 407.48438,553.62904 397.21138,573.23 390.06645,584.25976 C 383.63291,594.19156 385.25144,588.4743 392.5804,575.37961 C 395.74289,569.72919 400.11252,561.93091 402.29063,558.05015 C 404.81084,553.55967 407.41901,545.81829 409.46368,536.7592 C 411.23062,528.93004 412.99304,521.13182 413.38007,519.42982 C 413.76708,517.72782 414.35925,514.38573 414.69586,512.00291 C 415.41283,506.92913 417.11282,503.3382 418.79785,503.3382 C 419.45475,503.3382 419.99227,504.43473 419.99227,505.77501 C 419.99227,507.43245 420.58607,507.98388 421.84897,507.49927 C 423.19705,506.98193 423.70573,507.6424 423.70573,509.91059 C 423.70573,511.62871 423.11277,513.23206 422.38818,513.47362 C 421.66348,513.71515 420.28908,519.86273 419.33395,527.13488 C 416.59912,547.95797 414.49484,555.26678 408.61111,564.37684 C 405.68001,568.91541 400.27859,577.36953 396.60816,583.16378 C 390.0314,593.546 389.04685,594.77412 389.04685,592.59583 z M 155.82172,546.35231 C 155.51214,544.82053 154.62938,537.99703 153.85979,531.18905 C 153.09038,524.38107 152.26486,517.69686 152.02551,516.33525 C 147.14552,488.58508 147.11103,488.41991 139.60341,456.92008 C 137.81858,449.43134 136.57938,441.77231 136.84978,439.90011 C 137.12018,438.02791 136.94044,436.49612 136.45034,436.49612 C 134.97959,436.49612 134.2086,433.44744 130.39433,412.55093 C 125.40503,385.21708 123.46631,376.58211 121.37911,372.3982 C 120.22362,370.08194 120.07224,368.82473 120.94795,368.81711 C 121.69018,368.81066 123.4867,368.42207 124.94028,367.95363 C 129.34763,366.53323 134.03202,373.26299 134.15982,381.19884 C 134.21662,384.72079 134.46601,388.71644 134.71405,390.07802 C 135.7179,395.58707 140.39292,425.06765 140.99541,429.68816 C 141.35071,432.41133 142.41072,437.98151 143.35141,442.06629 C 144.29186,446.15108 146.24012,456.45591 147.68078,464.96592 C 149.12133,473.47588 151.07201,484.05919 152.01563,488.48441 C 152.95908,492.90959 154.62486,502.37889 155.71717,509.52729 C 156.80959,516.67569 158.25358,524.19541 158.92618,526.23777 C 160.68573,531.58104 161.7012,542.37382 160.78711,546.01598 C 159.81481,549.88969 156.58091,550.10877 155.82172,546.35231 z M 165.28148,546.35231 C 165.98468,544.11198 177.52548,536.69688 190.37734,530.22788 C 203.84912,523.44683 215.09695,518.19199 216.13969,518.19199 C 216.56166,518.19199 215.79579,520.07509 214.43795,522.37665 C 212.87841,525.01975 210.70441,526.81418 208.5365,527.24777 C 203.02919,528.34922 184.43168,537.38941 176.41371,542.86234 C 169.10857,547.84874 164.34278,549.3428 165.28148,546.35231 z M 280.90626,540.71561 C 279.11167,538.12602 277.64334,535.41027 277.64334,534.68054 C 277.64334,533.95081 276.2509,530.20501 274.54887,526.35654 C 270.91236,518.13407 270.63542,516.47528 273.60401,520.70167 C 277.74157,526.59188 286.19619,545.42399 284.70321,545.42399 C 284.40938,545.42399 282.70087,543.3052 280.90626,540.71561 z M 268.97867,494.68677 C 268.97867,491.2353 274.34999,480.15979 279.62592,472.73305 C 286.12998,463.57721 297.15658,451.34995 298.90935,451.34995 C 300.76875,451.34995 297.43622,456.63127 291.87963,462.49026 C 285.87759,468.81899 278.27186,479.8529 273.32198,489.4128 C 269.99607,495.83597 268.97867,497.07135 268.97867,494.68677 z M 296.83825,182.75801 C 296.40454,182.05634 296.90147,181.84884 298.00298,182.27153 C 300.1474,183.09442 300.53973,183.98165 298.7593,183.98165 C 298.11859,183.98165 297.25423,183.431 296.83825,182.75801 z M 335.40809,137.35724 C 334.95435,136.90339 334.5829,135.95645 334.5829,135.25295 C 334.5829,134.47734 335.15943,134.55042 336.04766,135.43863 C 336.85321,136.24425 337.22459,137.19118 336.87291,137.54291 C 336.52117,137.89465 335.86195,137.81111 335.40809,137.35724 z M 407.61404,114.66395 C 407.61404,113.98316 408.13818,113.42614 408.77877,113.42614 C 409.41936,113.42614 410.28773,113.98316 410.70857,114.66395 C 411.12935,115.34475 410.60509,115.90177 409.54384,115.90177 C 408.48241,115.90177 407.61404,115.34475 407.61404,114.66395 z" id="path2453"/>
  </g>
</svg>