<?xml version="1.0" encoding="windows-1252"?>
<!-- Uploaded to: SVG Repo, www.svgrepo.com, Generator: SVG Repo Mixer Tools -->
<svg height="800px" width="800px" version="1.1" id="Layer_1" xmlns="http://www.w3.org/2000/svg" xmlns:xlink="http://www.w3.org/1999/xlink" viewBox="0 0 512 512" xml:space="preserve">
<path style="fill:#B3404A;" d="M256,412.802c-26.582,0-52.845-6.778-75.948-19.6C130.182,365.541,99.198,312.966,99.198,256  s30.983-109.541,80.857-137.203c23.101-12.821,49.363-19.598,75.945-19.598c34.311,0,66.899,10.883,94.242,31.474  c26.434,19.907,46.258,48.222,55.823,79.731c2.281,7.517-1.963,15.458-9.479,17.74c-7.514,2.283-15.458-1.961-17.741-9.479  c-16.524-54.442-65.891-91.022-122.844-91.022c-21.763,0-43.253,5.542-62.143,16.027c-40.844,22.653-66.214,65.695-66.214,112.33  s25.37,89.676,66.209,112.328c18.894,10.488,40.383,16.029,62.148,16.029c56.565,0,105.836-36.26,122.603-90.228  c2.332-7.499,10.296-11.691,17.802-9.363c7.501,2.331,11.694,10.301,9.363,17.802c-9.715,31.271-29.575,59.347-55.921,79.058  C322.583,402.021,290.132,412.802,256,412.802z"/>
<path style="fill:#F4B2B0;" d="M113.421,256c0-53.689,29.689-100.447,73.534-124.766c43.843,24.317,73.534,71.075,73.534,124.766  s-29.689,100.447-73.534,124.766C143.11,356.448,113.421,309.691,113.421,256z"/>
<g>
	<path style="fill:#000000;" d="M186.955,394.988c-2.377,0-4.753-0.594-6.899-1.785C130.182,365.539,99.198,312.966,99.198,256   s30.983-109.541,80.857-137.203c4.292-2.379,9.506-2.379,13.797,0c49.875,27.663,80.858,80.236,80.858,137.203   s-30.983,109.541-80.857,137.203C191.706,394.394,189.331,394.988,186.955,394.988z M186.955,147.785   C150.176,171.292,127.643,212.05,127.643,256s22.531,84.708,59.312,108.217c36.779-23.508,59.312-64.265,59.312-108.217   S223.734,171.292,186.955,147.785z"/>
	<path style="fill:#B3404A;" d="M256,56.887c-7.855,0-14.222-6.367-14.222-14.222V14.222C241.778,6.367,248.145,0,256,0   c7.854,0,14.222,6.367,14.222,14.222v28.442C270.222,50.519,263.855,56.887,256,56.887z"/>
	<path style="fill:#B3404A;" d="M256,512c-7.855,0-14.222-6.367-14.222-14.222v-28.442c0-7.855,6.367-14.222,14.222-14.222   c7.854,0,14.222,6.367,14.222,14.222v28.442C270.222,505.633,263.855,512,256,512z"/>
	<path style="fill:#B3404A;" d="M105.149,119.371c-3.64,0-7.28-1.388-10.057-4.166L74.98,95.095c-5.554-5.554-5.554-14.559,0-20.115   c5.554-5.555,14.559-5.554,20.115,0l20.112,20.112c5.554,5.554,5.554,14.559,0,20.115   C112.429,117.983,108.788,119.371,105.149,119.371z"/>
	<path style="fill:#B3404A;" d="M426.963,441.185c-3.641,0-7.279-1.388-10.057-4.166l-20.112-20.112   c-5.554-5.554-5.554-14.559,0-20.115c5.555-5.554,14.558-5.554,20.115,0l20.112,20.112c5.554,5.554,5.554,14.559,0,20.115   C434.242,439.797,430.604,441.185,426.963,441.185z"/>
	<path style="fill:#B3404A;" d="M406.851,119.371c-3.641,0-7.279-1.388-10.057-4.166c-5.554-5.554-5.554-14.559,0-20.115   l20.112-20.112c5.555-5.554,14.558-5.554,20.115,0c5.554,5.554,5.554,14.559,0,20.115l-20.112,20.112   C414.132,117.983,410.492,119.371,406.851,119.371z"/>
	<path style="fill:#B3404A;" d="M85.038,441.185c-3.64,0-7.28-1.388-10.057-4.166c-5.554-5.554-5.554-14.559,0-20.115l20.112-20.112   c5.554-5.554,14.559-5.554,20.115,0s5.554,14.559,0,20.115L95.097,437.02C92.317,439.797,88.678,441.185,85.038,441.185z"/>
	<path style="fill:#B3404A;" d="M497.778,270.222h-28.442c-7.854,0-14.222-6.367-14.222-14.222s6.369-14.222,14.222-14.222h28.442   c7.854,0,14.222,6.367,14.222,14.222S505.633,270.222,497.778,270.222z"/>
	<path style="fill:#B3404A;" d="M42.664,270.222H14.222C6.367,270.222,0,263.855,0,256s6.367-14.222,14.222-14.222h28.442   c7.855,0,14.222,6.367,14.222,14.222S50.519,270.222,42.664,270.222z"/>
</g>
</svg>